<svg width="262" height="70" viewBox="0 0 262 70" fill="none" xmlns="http://www.w3.org/2000/svg">
<path d="M39.6239 19.66C41.083 18.9913 41.7256 17.9749 42.5689 17.1858C43.439 16.37 44.2556 15.5007 45.0989 14.6581C45.9958 13.7486 46.8927 12.8392 47.803 11.9431C48.6464 11.1006 49.4897 10.258 50.333 9.41545C51.163 8.58626 52.0063 7.75706 52.7292 7.03486C53.6261 7.06161 53.7734 7.62332 53.9608 8.05129C55.2593 11.1006 56.5042 14.1766 57.8027 17.2393C58.2444 18.2691 57.9633 19.018 57.2137 19.7536C54.9112 22.0272 52.6355 24.3142 50.3464 26.6145C49.811 27.1495 49.3023 27.6978 48.7936 28.2328C49.155 29.0887 49.8511 28.8079 50.3732 28.8079C55.0585 28.8346 59.7303 28.8212 64.4156 28.848C65.2455 28.848 66.1157 28.6474 66.8519 29.1556C66.9055 29.3562 67.0259 29.5301 66.9858 29.6638C66.3968 31.6164 63.1706 39.2129 62.3139 40.6974C61.5643 41.2324 60.6942 41.0585 59.8508 41.0585C56.2766 41.0853 52.7024 41.0853 49.1283 41.0853C48.6196 41.0853 48.1109 41.0853 47.6558 41.0853C47.3077 41.7005 47.7361 41.9144 48.0172 42.1953C51.511 45.6859 55.0183 49.1632 58.4988 52.6538C59.0744 53.2423 59.8508 53.7104 59.9847 54.8204C59.7036 55.021 59.409 55.3286 59.0342 55.4758C56.0491 56.7062 53.0371 57.8831 50.0519 59.1269C48.8605 59.6217 47.977 59.4345 47.0801 58.4983C45.273 56.5858 43.3989 54.7268 41.5248 52.8544C41.0696 52.3997 40.5342 52.0252 40.0522 51.624C39.316 52.1724 39.5569 52.8143 39.5436 53.3627C39.5436 58.0436 39.5569 62.7245 39.5569 67.4054C39.5569 68.2213 39.7042 69.0772 39.1955 70C38.6601 69.8529 38.1648 69.7726 37.7096 69.5988C34.8717 68.4352 32.0472 67.2449 29.2226 66.068C28.9147 65.9343 28.6068 65.7738 28.2989 65.6267C27.7233 65.3325 27.3753 64.8777 27.3619 64.2224C27.3485 63.5403 27.3217 62.8582 27.3217 62.1762C27.3351 58.8594 27.3485 55.5426 27.3485 52.2259C27.3485 51.7444 27.2548 51.2629 27.2013 50.8216C26.3044 50.6076 25.9965 51.2228 25.6083 51.6107C22.2884 54.914 18.9954 58.2442 15.6889 61.5476C15.0999 62.136 14.5912 62.8449 13.6274 63.1391C13.3998 62.7513 13.1455 62.4169 12.9849 62.0424C11.8068 59.1269 10.6958 56.1712 9.41067 53.2958C8.74135 51.7979 9.04924 50.7948 10.2005 49.7249C12.4896 47.5717 14.6849 45.2981 16.9071 43.0646C17.3756 42.5965 17.7772 42.0749 18.1788 41.6068C17.7103 40.8044 17.0543 41.0585 16.5055 41.0585C11.9139 41.0451 7.309 41.0585 2.71745 41.0585C1.8741 41.0585 1.04414 40.9916 0 40.9515C0.147251 40.2293 0.174024 39.6542 0.374821 39.146C1.52605 36.3107 2.75761 33.5022 3.88207 30.6535C4.39075 29.3829 5.14039 28.7945 6.55936 28.8212C9.8792 28.8881 13.199 28.8346 16.5189 28.8212C17.3622 28.8212 18.2056 28.7677 18.9686 28.7544C19.4371 28.0054 18.9017 27.6978 18.5804 27.3768C15.2204 24.0066 11.8336 20.6363 8.46023 17.266C7.87123 16.6776 7.309 16.0624 6.59952 15.3268C8.51378 14.0028 10.5753 13.4678 12.4762 12.652C14.4172 11.8228 16.3984 11.0738 18.4599 10.2446C21.4451 12.7322 23.868 15.7146 26.706 18.1755C27.5895 17.8411 27.3485 17.1457 27.3485 16.6107C27.3753 11.9298 27.3485 7.24885 27.3619 2.56792C27.3619 1.73873 27.1611 0.869416 27.6698 0.120467C27.8706 0.0803452 28.058 -0.0400215 28.1785 0.0134748C31.4849 1.36426 34.778 2.71504 38.0711 4.10594C38.5262 4.29318 38.9144 4.6409 39.4365 4.98863C39.7042 9.76317 39.4499 14.5778 39.6239 19.66ZM35.0457 46.2744C36.1568 45.2045 37.4419 44.9771 38.5797 44.4421C39.731 43.9072 40.9358 43.4525 42.1004 42.9309C43.2382 42.4227 44.5099 42.2087 45.7147 41.2992C44.7643 41.112 44.0682 40.9649 43.3185 40.8178C43.3855 39.4536 44.0548 38.4372 44.4832 37.3405C44.9517 36.1502 45.4871 34.9867 45.9289 33.7964C46.3305 32.7131 47.1069 31.7502 47.0801 30.2523C46.1699 30.9343 45.4604 31.4559 44.7643 31.9641C43.8808 31.3088 43.7469 30.4261 43.4256 29.6638C42.3681 27.1495 41.3641 24.6218 40.3066 22.1208C40.2397 21.9603 39.9853 21.8801 39.7979 21.733C39.6239 22.4685 39.4766 23.0838 39.2892 23.8862C38.312 23.5251 37.5222 23.2576 36.7458 22.9366C34.3898 21.947 32.0472 20.9439 29.6911 19.9542C29.3565 19.8205 28.9549 19.4861 28.5935 20.0746C29.3699 21.5725 31.2172 22.2011 31.9133 24.0066C28.5265 25.6649 24.9523 26.7616 21.2175 28.5805C22.3018 28.7811 22.931 28.9015 23.8413 29.0753C22.7034 32.7265 20.923 36.0031 19.6781 40.0688C20.5482 39.3466 20.9498 38.9588 21.3915 38.6378C21.6994 38.4104 22.0743 38.2767 22.5562 38.036C23.0916 39.2931 23.5601 40.3764 24.0153 41.4731C24.5106 42.65 24.9523 43.8537 25.4878 45.0039C25.9697 46.0604 26.0768 47.2908 27.0942 48.4142C27.3083 47.5717 27.469 46.9698 27.6296 46.3145C28.6872 46.2477 29.477 46.796 30.3337 47.117C31.2841 47.4781 32.2212 47.8793 33.1716 48.2805C34.0283 48.6416 34.8851 49.0428 35.7552 49.3772C36.6655 49.7249 37.482 50.3936 38.8073 50.3401C37.7766 48.6416 36.1434 47.8525 35.0457 46.2744Z" fill="#00D2FF"/>
<path d="M158.577 58.8058C157.305 58.8326 156.288 58.8192 155.284 58.8727C154.454 58.9128 154.093 58.3778 153.718 57.6289C153.276 57.883 152.834 58.1104 152.419 58.3645C149.18 60.3706 145.191 58.8593 143.584 56.9201C143.156 56.3985 142.714 55.8501 142.42 55.2483C140.733 51.7844 140.532 48.2002 141.978 44.6293C143.865 39.9885 148.35 38.6377 152.633 41.3125C152.848 41.4463 153.075 41.5533 153.463 41.7672C153.597 41.3526 153.785 40.9915 153.798 40.6304C153.838 39.0122 153.785 37.3939 153.825 35.789C153.838 35.2139 153.972 34.6522 154.052 34.0103C155.578 33.6358 156.984 33.7428 158.403 33.9167C159.072 34.7993 158.858 35.7623 158.858 36.6717C158.885 42.3691 158.872 48.0664 158.872 53.7638C158.872 54.8738 158.898 55.9705 158.858 57.0806C158.845 57.562 158.711 58.0435 158.577 58.8058ZM146.342 49.6178C146.382 50.1929 146.328 50.9017 146.516 51.5303C146.757 52.3194 147.078 53.1486 147.573 53.7905C148.845 55.4355 151.362 55.489 152.66 53.8841C153.222 53.1887 153.678 52.2926 153.852 51.4233C154.146 50.019 154.093 48.5613 153.651 47.157C153.075 45.298 151.616 44.1746 149.956 44.3083C148.095 44.4554 146.743 45.7661 146.462 47.7454C146.382 48.3205 146.382 48.9224 146.342 49.6178Z" fill="white"/>
<path d="M102.379 20.2614C104.092 18.282 105.431 16.8643 106.622 15.3263C107.546 14.1227 108.643 13.6412 110.129 13.7749C111.2 13.8685 112.298 13.7214 113.248 13.8953C113.369 14.1895 113.422 14.2564 113.436 14.3366C113.449 14.4169 113.422 14.5239 113.382 14.5774C111.655 16.5567 109.929 18.5227 108.108 20.5957C108.349 21.1307 108.55 21.679 108.804 22.1872C110.129 24.755 111.481 27.3095 112.793 29.8773C113.128 30.5326 113.637 31.1746 113.302 32.1108C111.923 32.4986 110.491 32.2846 109.072 32.2178C108.403 32.191 108.041 31.6962 107.76 31.1345C106.943 29.4493 106.127 27.7776 105.297 26.0924C105.043 25.5709 104.748 25.0626 104.4 24.4073C102.914 25.3168 102.017 26.3198 102.191 28.0986C102.312 29.3423 102.432 30.6263 101.99 31.977C100.491 32.5388 99.0186 32.2178 97.439 32.1242C97.3185 31.4822 97.1579 31.0007 97.1579 30.5193C97.1445 23.2036 97.1579 15.9014 97.1713 8.58579C97.1713 8.25144 97.265 7.93046 97.3319 7.50249C98.8044 6.87391 100.29 7.10126 101.696 7.27513C102.405 8.09095 102.231 8.97363 102.231 9.78945C102.245 12.598 102.205 15.4066 102.205 18.2017C102.205 18.6966 102.285 19.1781 102.379 20.2614Z" fill="white"/>
<path d="M202.938 34.1309C204.692 33.5826 206.124 33.8501 207.543 33.8233C208.293 35.2142 207.838 36.6051 207.945 37.9292C208.038 39.173 207.784 40.4301 208.132 41.928C208.735 41.5402 209.123 41.2861 209.538 41.032C211.653 39.7481 213.902 39.6277 216.151 40.5505C218.105 41.3529 219.444 42.8375 219.497 44.9907C219.604 49.3239 219.524 53.6705 219.511 58.0037C219.511 58.1508 219.377 58.3113 219.31 58.4584C217.583 59.0067 217.061 59.0201 214.879 58.6055C214.25 57.9903 214.384 57.1878 214.384 56.4523C214.37 53.724 214.384 51.009 214.37 48.2807C214.37 47.5184 214.357 46.7427 214.263 45.9937C214.116 44.9506 213.447 44.3354 212.429 44.1615C210.301 43.8138 208.721 44.8168 208.253 46.9166C208.065 47.7324 208.012 48.6017 207.998 49.4443C207.972 51.651 207.998 53.8711 207.985 56.0778C207.985 56.907 208.159 57.7763 207.597 58.6857C206.258 59.0602 204.852 58.9265 203.527 58.7259C202.697 57.9635 202.965 57.0541 202.965 56.2383C202.952 49.7652 202.952 43.3056 202.952 36.8325C202.938 35.9899 202.938 35.1474 202.938 34.1309Z" fill="white"/>
<path d="M165.147 46.6486C163.634 46.6085 162.282 46.9161 160.917 46.2742C160.81 44.9367 161.185 43.7598 161.908 42.6899C162.59 41.6735 163.514 40.9112 164.692 40.5768C167.182 39.868 169.685 39.6807 172.229 40.3628C174.852 41.0716 176.178 42.8638 176.593 45.4182C176.686 46.0067 176.673 46.6085 176.673 47.197C176.686 50.3399 176.7 53.4828 176.686 56.6257C176.686 57.2141 176.593 57.8026 176.539 58.3911C175.227 59.2203 173.848 58.8592 172.536 58.7655C172.162 58.7388 171.827 58.1637 171.412 57.7892C171.117 57.9363 170.823 58.0701 170.528 58.2306C168.587 59.3273 166.539 59.5412 164.371 59.0731C160.194 58.1637 158.628 53.3089 161.479 50.1259C162.55 48.9356 163.916 48.3338 165.468 48.0663C167.048 47.7854 168.641 47.5046 170.207 47.1301C171.104 46.9161 171.452 46.2608 171.305 45.4182C171.184 44.7629 170.769 44.2948 170.14 44.2146C169.217 44.0942 168.28 44.0541 167.356 44.1611C166.914 44.2146 166.446 44.6024 166.124 44.9635C165.79 45.4182 165.549 45.9799 165.147 46.6486ZM171.68 50.4335C170.435 50.6742 169.538 50.8481 168.628 51.0353C168.213 51.1156 167.757 51.1691 167.396 51.3563C166.807 51.6639 166.178 51.9983 165.75 52.4664C165.201 53.0682 165.147 53.884 165.562 54.6196C165.924 55.2348 166.499 55.5959 167.235 55.6226C169.136 55.7163 170.943 54.3788 171.385 52.5065C171.532 51.9581 171.559 51.3563 171.68 50.4335Z" fill="white"/>
<path d="M113.73 49.5783C113.756 51.0361 113.529 52.4537 112.967 53.8045C111.387 57.6295 107.545 59.7961 103.302 59.2879C98.4824 58.7128 95.7516 55.9444 95.0689 51.0628C94.7476 48.8026 95.0019 46.636 96.0862 44.6567C97.9336 41.2463 100.946 39.6146 105.51 40.0426C110.758 40.5374 112.953 43.881 113.609 47.7996C113.703 48.388 113.703 48.9765 113.73 49.5783ZM108.562 49.0701C108.509 48.7625 108.469 47.8932 108.228 47.0907C107.666 45.205 106.153 44.2019 104.172 44.2688C102.311 44.349 100.986 45.4056 100.477 47.2379C100.062 48.7491 100.129 50.2738 100.45 51.7984C100.785 53.4702 101.909 54.9814 104.212 54.8477C104.546 54.8209 104.895 54.8076 105.229 54.8076C106.461 54.7808 107.277 54.1121 107.866 53.0823C108.495 51.999 108.549 50.8087 108.562 49.0701Z" fill="white"/>
<path d="M239.79 40.7772C241.531 40.2556 242.95 40.4964 244.476 40.483C244.623 41.0581 244.864 41.5262 244.864 41.9942C244.891 47.0095 244.891 52.0248 244.864 57.0401C244.864 57.5349 244.703 58.0164 244.596 58.5647C243.217 59.0729 241.879 58.8322 240.46 58.8055C240.179 58.3106 239.911 57.8291 239.576 57.2407C238.398 58.217 237.207 58.9659 235.721 59.2201C232.2 59.8353 229.041 57.6553 228.466 54.1112C228.345 53.3622 228.278 52.5865 228.278 51.8242C228.251 48.7615 228.238 45.6989 228.251 42.6362C228.251 41.9809 228.412 41.3255 228.492 40.6836C230.085 40.3091 231.504 40.3359 233.07 40.59C233.164 41.1784 233.325 41.7401 233.338 42.3018C233.365 44.8563 233.352 47.4107 233.352 49.9518C233.352 50.6339 233.338 51.316 233.378 51.9981C233.485 53.7099 234.141 54.5793 235.44 54.7932C237.327 55.1008 238.626 54.5792 239.268 53.0814C239.563 52.3993 239.67 51.6102 239.697 50.8613C239.75 48.4004 239.724 45.9262 239.737 43.4654C239.737 42.6228 239.777 41.7803 239.79 40.7772Z" fill="white"/>
<path d="M189.578 52.7476C189.806 52.9215 189.886 52.975 189.926 53.0418C190.475 53.7774 190.756 54.7136 191.787 55.0346C192.965 55.3957 194.143 55.3957 195.321 55.1817C196.084 55.048 196.646 54.4461 196.66 53.8309C196.673 53.1756 196.352 52.6674 195.763 52.4133C195.227 52.1725 194.652 51.9853 194.09 51.8114C192.952 51.4771 191.787 51.223 190.649 50.8485C189.766 50.5543 188.869 50.2333 188.079 49.7518C186.232 48.6418 185.388 46.9566 185.643 44.8034C185.884 42.7438 187.035 41.3262 188.963 40.6708C191.867 39.6678 194.826 39.6811 197.731 40.6574C199.846 41.3663 201.037 43.3724 201.024 45.8332C200.395 46.435 199.591 46.1943 198.855 46.2211C198.186 46.2478 197.516 46.2211 197.008 46.2211C196.713 45.967 196.553 45.8867 196.472 45.753C196.057 45.1244 195.816 44.3353 194.946 44.1481C193.675 43.8806 192.403 43.8539 191.171 44.2684C190.622 44.4557 190.382 45.4186 190.837 45.7797C191.426 46.2344 192.082 46.6758 192.778 46.9031C194.143 47.3579 195.562 47.6655 196.954 48.0533C197.53 48.2138 198.105 48.3609 198.654 48.5749C203.206 50.3804 202.362 55.944 199.672 57.7094C199.043 58.124 198.36 58.5252 197.637 58.7526C194.598 59.6888 191.586 59.5818 188.655 58.3112C186.754 57.482 185.509 56.0376 185.027 53.978C184.866 53.2959 185.214 52.7877 185.924 52.761C187.209 52.7075 188.481 52.7476 189.578 52.7476Z" fill="white"/>
<path d="M79.2891 26.4274C80.882 25.8389 82.3947 26.1733 83.8137 26.1198C84.0412 26.2802 84.2287 26.3471 84.2956 26.4809C84.724 27.3234 85.1389 28.1794 86.1429 28.4736C87.3075 28.8213 88.4989 28.7946 89.6636 28.4602C89.9848 28.3666 90.2793 28.166 90.5337 27.952C91.1093 27.5107 91.1495 26.6012 90.5605 26.1866C90.0116 25.7988 89.3958 25.4778 88.7667 25.2772C87.4816 24.8626 86.1295 24.6085 84.8444 24.1805C83.8806 23.8595 82.9168 23.4851 82.0734 22.9367C80.36 21.8267 79.6103 20.1549 79.8781 18.1221C80.1458 16.0892 81.297 14.6181 83.2113 13.9761C85.9287 13.0667 88.7265 13.0667 91.4975 13.829C92.6755 14.15 93.6527 14.8454 94.3488 15.8618C95.0315 16.8515 95.5938 17.8813 95.3528 19.2856C94.0008 19.9543 92.5684 19.5397 91.0424 19.5798C90.9219 19.406 90.7345 19.2187 90.6274 19.0047C90.2659 18.1889 89.7706 17.547 88.847 17.333C87.7493 17.0789 86.665 17.0521 85.6075 17.5336C84.8043 17.8947 84.6169 18.8175 85.313 19.3792C85.7681 19.7403 86.3036 20.0479 86.8524 20.2218C87.8162 20.5428 88.8202 20.7568 89.7974 21.0242C90.614 21.2516 91.444 21.4255 92.2471 21.7197C95.393 22.8297 96.504 24.769 95.8749 28.0322C95.4063 30.4262 93.6795 31.6834 91.5377 32.205C89.0478 32.8202 86.4642 32.7934 83.9743 32.0712C81.8191 31.4426 80.2261 30.0919 79.4631 27.9386C79.2757 27.4973 79.3426 26.9757 79.2891 26.4274Z" fill="white"/>
<path d="M150.999 19.5127C149.487 19.5127 148.148 19.5127 146.769 19.5127C146.609 19.3255 146.381 19.165 146.301 18.951C145.926 17.9881 145.243 17.3996 144.239 17.2391C143.128 17.0653 142.03 17.0519 141.026 17.6805C140.464 18.0282 140.317 18.7905 140.839 19.1784C141.441 19.6331 142.097 20.0477 142.807 20.3018C143.851 20.6629 144.949 20.8501 146.006 21.1444C146.903 21.3985 147.827 21.6258 148.67 22.0003C152.244 23.5784 152.9 28.2727 149.902 30.8272C148.911 31.6697 147.773 32.3117 146.461 32.3652C144.601 32.4454 142.7 32.5524 140.866 32.3251C138.148 31.9907 136.127 30.5196 135.15 27.8581C134.989 27.4302 135.083 26.9086 135.056 26.3469C136.689 25.9189 138.202 26.1864 139.554 26.1061C139.822 26.387 139.982 26.494 140.049 26.6277C140.478 27.4837 141 28.2861 142.004 28.5135C143.182 28.7809 144.373 28.7809 145.538 28.4198C145.779 28.353 145.993 28.1791 146.194 28.0186C146.809 27.5372 146.836 26.4405 146.167 26.0259C145.605 25.6648 144.949 25.4107 144.306 25.2101C143.088 24.8356 141.83 24.5949 140.625 24.1803C139.661 23.8593 138.684 23.4848 137.84 22.9365C134.494 20.7164 134.869 15.9418 138.483 14.1765C138.791 14.0293 139.099 13.8956 139.433 13.802C142.044 13.1065 144.654 13.1333 147.251 13.8154C148.456 14.1363 149.366 14.8853 150.062 15.8883C150.825 16.9984 150.986 17.5735 150.999 19.5127Z" fill="white"/>
<path d="M261.692 54.8473C261.96 56.2382 262.013 57.3215 261.638 58.5252C261.197 58.6322 260.715 58.8328 260.233 58.8596C254.249 59.1404 248.011 58.9532 246.204 58.445C245.628 56.5726 245.842 54.9142 247.301 53.3628C249.336 51.1962 251.224 48.8959 253.165 46.6357C253.593 46.1274 253.995 45.5925 254.369 45.111C254.115 44.4824 253.647 44.5894 253.245 44.576C251.719 44.5493 250.179 44.576 248.653 44.5493C247.984 44.5359 247.275 44.6295 246.672 44.0143C246.351 43.0113 246.351 41.9414 246.739 40.7511C247.208 40.6441 247.69 40.4702 248.172 40.4568C253.78 40.2161 259.604 40.3632 261.518 40.8046C261.558 41.7675 261.612 42.7705 261.638 43.7736C261.652 44.5092 261.183 45.0174 260.715 45.5256C258.385 48.1202 256.07 50.7147 253.754 53.3227C253.486 53.6303 253.258 53.9646 252.91 54.406C253.74 54.8741 254.517 54.6467 255.226 54.6868C255.909 54.727 256.592 54.7002 257.261 54.7002C258.024 54.7002 258.787 54.6735 259.55 54.7002C260.233 54.7002 260.889 54.7805 261.692 54.8473Z" fill="white"/>
<path d="M88.0973 45.4187C88.9942 43.9074 89.6769 42.8509 90.2793 41.7408C90.7746 40.818 91.4573 40.3633 92.5283 40.4168C93.7866 40.4836 95.0583 40.3633 96.5308 40.5371C96.3166 41.139 96.2363 41.6338 95.982 42.0217C94.6701 44.001 93.3047 45.9536 91.966 47.9196C91.6447 48.4011 91.3904 48.9361 91.0691 49.5245C92.8094 52.5604 95.0047 55.262 96.8521 58.4718C96.2497 58.6456 95.8883 58.8329 95.5134 58.8462C94.5764 58.8864 93.6393 58.7927 92.7157 58.8864C91.4172 59.0201 90.6408 58.4049 90.0651 57.335C89.6234 56.5058 89.1549 55.7033 88.673 54.9009C88.4722 54.5665 88.191 54.2723 87.8028 53.7641C86.9863 55.1951 86.2768 56.4255 85.5673 57.6827C85.1122 58.4985 84.4562 58.9265 83.4924 58.873C82.1671 58.8061 80.8151 59.0067 79.3828 58.6323C79.4765 57.1879 80.4403 56.3854 81.0159 55.3957C81.5781 54.4462 82.2207 53.5501 82.8231 52.6273C83.479 51.6376 84.135 50.6479 84.8578 49.5646C84.2153 47.9597 83.0373 46.7026 82.1538 45.2849C81.2703 43.8539 80.3198 42.4764 79.2891 40.8849C81.3104 40.1359 83.131 40.497 85.0586 40.4836C85.5539 41.2727 86.0492 42.0484 86.5311 42.8375C86.9729 43.5597 87.4012 44.2685 88.0973 45.4187Z" fill="white"/>
<path d="M134.641 40.6309C136.194 40.3233 137.6 40.4169 139.126 40.564C139.233 41.0722 139.393 41.4734 139.393 41.8746C139.407 47.9064 139.407 53.9247 139.407 59.9564C139.407 61.2537 139.126 62.4841 138.497 63.6209C136.475 67.3389 131.174 68.6228 127.64 66.2288C125.539 64.8112 124.601 62.5376 125.003 59.8494C126.917 59.3011 127.239 59.3011 129.273 59.8494C129.434 60.3442 129.581 60.9193 129.822 61.4409C130.277 62.444 131.308 62.9522 132.325 62.7649C133.263 62.5911 133.945 61.8956 134.079 60.8525C134.186 60.0099 134.2 59.1539 134.2 58.3114C134.213 53.3897 134.2 48.4681 134.213 43.533C134.226 42.6236 134.092 41.674 134.641 40.6309Z" fill="white"/>
<path d="M126.825 31.9913C125.165 32.4059 123.692 32.3925 122.072 32.0047C121.965 31.4831 121.791 31.0016 121.791 30.5335C121.778 23.2313 121.778 15.9424 121.791 8.64015C121.791 8.3058 121.898 7.98482 121.965 7.57022C123.491 6.76778 125.058 7.2225 126.704 7.20913C126.825 7.87783 126.972 8.3593 126.985 8.85414C127.012 16.0628 127.012 23.2848 126.999 30.4934C126.999 30.908 126.905 31.3226 126.825 31.9913Z" fill="white"/>
<path d="M128.979 32.2453C128.819 31.5766 128.671 31.2556 128.671 30.9346C128.658 23.4585 128.645 15.9824 128.658 8.50629C128.658 8.18531 128.805 7.86434 128.899 7.44974C130.398 6.9549 131.871 7.07527 133.49 7.34275C133.584 7.87771 133.731 8.35918 133.731 8.84064C133.745 15.9824 133.745 23.1108 133.745 30.2525C133.745 30.5869 133.731 30.9346 133.691 31.269C133.611 31.844 133.249 32.2185 132.687 32.2319C131.496 32.272 130.318 32.2453 128.979 32.2453Z" fill="white"/>
<path d="M115.311 40.4836C116.69 40.4703 117.788 40.4703 118.886 40.4301C119.649 40.39 119.863 40.9651 120.197 41.6071C120.773 41.2593 121.295 40.8715 121.884 40.604C122.42 40.3633 123.009 40.2295 123.584 40.0958C124.254 39.9353 124.923 39.8016 125.672 40.283C126.221 41.7542 125.967 43.3189 125.82 44.9773C124.963 45.0442 124.294 45.0709 123.624 45.1378C121.71 45.325 120.465 46.4618 120.371 48.4011C120.251 50.8619 120.318 53.3361 120.278 55.7969C120.264 56.7198 120.425 57.6693 119.93 58.6055C118.604 59.0736 117.252 58.8997 115.941 58.6991C115.633 58.659 115.285 58.1775 115.177 57.8164C115.03 57.3483 115.07 56.8134 115.07 56.2918C115.07 51.6911 115.057 47.1038 115.07 42.5031C115.084 41.9548 115.204 41.3797 115.311 40.4836Z" fill="white"/>
<path d="M119.661 32.031C118.296 32.4991 116.877 32.3119 115.458 32.1647C114.695 31.3222 114.869 30.3459 114.869 29.4498C114.855 25.7051 114.869 21.9603 114.882 18.2156C114.882 17.3597 114.869 16.5171 114.909 15.6611C114.936 15.1663 115.029 14.6581 115.11 14.083C116.649 13.6015 118.122 13.762 119.755 13.9359C119.862 14.5645 120.009 15.1262 120.036 15.6879C120.33 24.9026 120.21 29.8912 119.661 32.031Z" fill="white"/>
<path d="M131.911 58.8595C130.559 58.8595 129.461 58.8996 128.363 58.8461C127.493 58.806 127.145 58.4449 127.038 57.6023C126.984 57.1877 126.984 56.7597 126.984 56.3318C126.984 51.7445 126.971 47.1705 126.984 42.5832C126.984 42.0081 127.092 41.433 127.172 40.751C128.725 40.2561 130.197 40.3631 131.817 40.6039C131.937 41.0987 132.138 41.5668 132.138 42.0349C132.165 47.0368 132.165 52.0521 132.165 57.054C132.165 57.5488 132.031 58.0303 131.911 58.8595Z" fill="white"/>
<path d="M183.542 40.4835C183.636 41.2993 183.743 41.7808 183.756 42.2756C183.77 47.1037 183.756 51.9451 183.756 56.7731C183.756 57.1075 183.743 57.4552 183.716 57.7896C183.649 58.3513 183.328 58.7124 182.766 58.8327C182.525 58.8862 182.257 58.8862 182.003 58.8862C178.562 58.8996 178.562 59.0601 178.576 55.6363C178.603 51.477 178.589 47.331 178.616 43.1717C178.616 42.3425 178.455 41.4732 179.098 40.644C179.54 40.5771 180.035 40.4568 180.53 40.4434C181.44 40.4166 182.364 40.4568 183.542 40.4835Z" fill="white"/>
<path d="M115.205 7.24902C116.864 7.24902 118.283 7.24902 119.689 7.24902C120.465 8.74692 119.917 10.1646 119.997 11.6223C118.404 12.2777 116.918 11.9834 115.338 11.9166C114.669 10.4053 114.843 8.94753 115.205 7.24902Z" fill="white"/>
<path d="M157.533 27.3232C157.654 27.4703 157.734 27.5372 157.748 27.604C158.524 31.8436 158.069 32.4856 153.384 31.6564C152.607 30.3591 152.821 28.9682 153.129 27.497C154.628 26.8818 156.114 27.0557 157.533 27.3232Z" fill="white"/>
<path d="M179.03 33.9701C180.516 33.716 181.922 33.6625 183.421 33.9969C183.97 35.4145 183.823 36.792 183.555 38.2766C182.002 38.7179 180.53 38.651 178.99 38.3434C178.441 36.8589 178.334 35.4145 179.03 33.9701Z" fill="white"/>
<path d="M127.198 33.9297C128.845 33.9297 130.264 33.9297 131.749 33.9297C132.486 35.3072 132.138 36.7115 131.977 38.1826C130.464 38.8112 128.965 38.5705 127.439 38.4234C126.649 37.0191 126.957 35.6282 127.198 33.9297Z" fill="white"/>
<path d="M221.72 58.4716C221.225 56.8132 221.225 55.5025 221.626 54.1116C223.099 53.376 224.612 53.8575 226.084 53.7505C226.914 55.2618 226.606 56.6527 226.392 58.1105C224.879 58.8728 223.38 58.4849 221.72 58.4716Z" fill="white"/>
<path d="M139.18 38.3834C137.507 38.584 136.088 38.6642 134.642 38.3299C134.026 36.9256 134.107 35.5481 134.522 34.0903C136.061 33.542 137.534 33.8763 139.1 33.8763C139.595 35.4277 139.488 36.8053 139.18 38.3834Z" fill="white"/>
</svg>
