<svg xmlns="http://www.w3.org/2000/svg" width="262" height="70" fill="none" xmlns:v="https://vecta.io/nano"><path d="M39.624 19.66c1.459-.669 2.102-1.685 2.945-2.474l2.53-2.528 2.704-2.715 2.53-2.528 2.396-2.381c.897.027 1.044.588 1.232 1.016l3.842 9.188c.442 1.03.161 1.779-.589 2.514l-6.867 6.861-1.553 1.618c.361.856 1.058.575 1.58.575l14.042.04c.83 0 1.7-.201 2.436.308.054.201.174.375.134.508-.589 1.953-3.815 9.549-4.672 11.034-.75.535-1.62.361-2.463.361l-10.722.027h-1.473c-.348.615.08.829.361 1.11l10.482 10.458c.576.589 1.352 1.057 1.486 2.167-.281.201-.576.508-.95.655l-8.982 3.651c-1.191.495-2.075.308-2.972-.629-1.807-1.913-3.681-3.772-5.555-5.644-.455-.455-.991-.829-1.473-1.23-.736.548-.495 1.19-.509 1.739l.013 14.043c0 .816.147 1.672-.361 2.595-.535-.147-1.031-.227-1.486-.401l-8.487-3.531c-.308-.134-.616-.294-.924-.441-.576-.294-.924-.749-.937-1.404l-.04-2.046.027-9.95c0-.482-.094-.963-.147-1.404-.897-.214-1.205.401-1.593.789l-9.919 9.937c-.589.588-1.098 1.297-2.062 1.591-.228-.388-.482-.722-.643-1.097-1.178-2.916-2.289-5.871-3.574-8.747-.669-1.498-.361-2.501.79-3.571 2.289-2.153 4.484-4.427 6.707-6.66.468-.468.87-.99 1.272-1.458-.468-.802-1.124-.548-1.673-.548-4.592-.013-9.196 0-13.788 0-.843 0-1.673-.067-2.717-.107.147-.722.174-1.297.375-1.806l3.507-8.492c.509-1.271 1.258-1.859 2.677-1.832 3.32.067 6.64.013 9.96 0 .843 0 1.687-.053 2.45-.067.469-.749-.067-1.057-.388-1.378L8.46 17.266c-.589-.588-1.151-1.204-1.861-1.939 1.914-1.324 3.976-1.859 5.877-2.675 1.941-.829 3.922-1.578 5.984-2.407 2.985 2.488 5.408 5.47 8.246 7.931.884-.334.643-1.03.643-1.565l.013-14.043c0-.829-.201-1.699.308-2.447.201-.04.388-.16.509-.107l9.893 4.092c.455.187.843.535 1.365.883.268 4.775.013 9.589.187 14.671zm-4.578 26.614c1.111-1.07 2.396-1.297 3.534-1.832 1.151-.535 2.356-.99 3.521-1.511 1.138-.508 2.41-.722 3.614-1.632l-2.396-.481c.067-1.364.736-2.381 1.165-3.477.469-1.19 1.004-2.354 1.446-3.544.402-1.083 1.178-2.046 1.151-3.544l-2.316 1.712c-.883-.655-1.017-1.538-1.339-2.3l-3.119-7.543c-.067-.16-.321-.241-.509-.388l-.509 2.153c-.977-.361-1.767-.629-2.543-.95l-7.055-2.982c-.335-.134-.736-.468-1.098.12.776 1.498 2.624 2.127 3.32 3.932-3.387 1.658-6.961 2.755-10.696 4.574l2.624.495c-1.138 3.651-2.918 6.928-4.163 10.994.87-.722 1.272-1.11 1.713-1.431.308-.227.683-.361 1.165-.602l1.459 3.437c.495 1.177.937 2.381 1.473 3.531.482 1.056.589 2.287 1.606 3.41l.535-2.1c1.058-.067 1.847.481 2.704.802.95.361 1.888.762 2.838 1.164.857.361 1.714.762 2.584 1.097.91.348 1.727 1.016 3.052.963-1.031-1.699-2.664-2.488-3.762-4.066z" fill="#00d2ff"/><path d="M158.577 58.806l-3.293.067c-.83.04-1.191-.495-1.566-1.244l-1.299.736c-3.239 2.006-7.228.495-8.835-1.444-.428-.522-.87-1.07-1.164-1.672-1.687-3.464-1.888-7.048-.442-10.619 1.887-4.641 6.372-5.992 10.655-3.317.215.134.442.241.83.455.134-.415.322-.776.335-1.137.04-1.618-.013-3.236.027-4.841.013-.575.147-1.137.227-1.779 1.526-.374 2.932-.267 4.351-.094.669.883.455 1.846.455 2.755l.014 17.092c0 1.11.026 2.207-.014 3.317-.013.481-.147.963-.281 1.725zm-12.235-9.188c.04.575-.014 1.284.174 1.912.241.789.562 1.618 1.057 2.26 1.272 1.645 3.789 1.698 5.087.094.562-.695 1.018-1.591 1.192-2.461.294-1.404.241-2.862-.201-4.266-.576-1.859-2.035-2.982-3.695-2.849-1.861.147-3.213 1.458-3.494 3.437-.08.575-.08 1.177-.12 1.872zm-43.963-29.357l4.243-4.935c.924-1.204 2.021-1.685 3.507-1.551 1.071.094 2.169-.054 3.119.12l.188.441c.013.08-.014.187-.054.241l-5.274 6.018.696 1.592 3.989 7.69c.335.655.844 1.297.509 2.233-1.379.388-2.811.174-4.23.107-.669-.027-1.031-.522-1.312-1.083l-2.463-5.042-.897-1.685c-1.486.91-2.383 1.913-2.209 3.691.121 1.244.241 2.528-.201 3.878-1.499.562-2.971.241-4.551.147-.12-.642-.281-1.124-.281-1.605l.013-21.934c0-.334.094-.655.161-1.083 1.472-.629 2.958-.401 4.364-.227.709.816.535 1.699.535 2.514l-.026 8.412c0 .495.08.976.174 2.06zm100.559 13.87c1.754-.548 3.186-.281 4.605-.308.75 1.391.295 2.782.402 4.106.093 1.244-.161 2.501.187 3.999l1.406-.896c2.115-1.284 4.364-1.404 6.613-.481 1.954.802 3.293 2.287 3.346 4.44.107 4.333.027 8.68.014 13.013 0 .147-.134.308-.201.455-1.727.548-2.249.562-4.431.147-.629-.615-.495-1.418-.495-2.153l-.014-8.172c0-.762-.013-1.538-.107-2.287-.147-1.043-.816-1.658-1.834-1.832-2.128-.348-3.708.655-4.176 2.755-.188.816-.241 1.685-.255 2.528l-.013 6.634c0 .829.174 1.698-.388 2.608-1.339.375-2.745.241-4.07.04-.83-.762-.562-1.672-.562-2.488l-.013-19.406-.014-2.702zm-37.791 12.518c-1.513-.04-2.865.267-4.23-.374-.107-1.337.268-2.514.991-3.584.682-1.016 1.606-1.779 2.784-2.113 2.49-.709 4.993-.896 7.537-.214 2.623.709 3.949 2.501 4.364 5.055.093.589.08 1.19.08 1.779l.013 9.429c0 .588-.093 1.177-.147 1.765-1.312.829-2.691.468-4.003.374-.374-.027-.709-.602-1.124-.976l-.884.441c-1.941 1.097-3.989 1.311-6.157.842a5.37 5.37 0 0 1-2.892-8.947c1.071-1.19 2.437-1.792 3.989-2.06l4.739-.936c.897-.214 1.245-.869 1.098-1.712-.121-.655-.536-1.123-1.165-1.204-.923-.12-1.86-.16-2.784-.053-.442.053-.91.441-1.232.802-.334.455-.575 1.016-.977 1.685zm6.533 3.785l-3.052.602c-.415.08-.871.134-1.232.321-.589.308-1.218.642-1.646 1.11-.549.602-.603 1.418-.188 2.153a1.95 1.95 0 0 0 1.673 1.003 4.13 4.13 0 0 0 4.15-3.116c.147-.548.174-1.15.295-2.073zm-57.95-.856c.026 1.458-.201 2.875-.763 4.226-1.58 3.825-5.422 5.992-9.665 5.483-4.82-.575-7.55-3.343-8.233-8.225-.321-2.26-.067-4.427 1.017-6.406 1.847-3.41 4.86-5.042 9.424-4.614 5.248.495 7.443 3.838 8.099 7.757.094.588.094 1.177.121 1.779zm-5.168-.508c-.053-.308-.093-1.177-.334-1.979-.562-1.886-2.075-2.889-4.056-2.822-1.861.08-3.186 1.137-3.695 2.969-.415 1.511-.348 3.036-.027 4.56.335 1.672 1.459 3.183 3.762 3.049a12.9 12.9 0 0 1 1.017-.04c1.232-.027 2.048-.696 2.637-1.725.629-1.083.683-2.274.696-4.012zm131.228-8.293c1.741-.522 3.16-.281 4.686-.294.147.575.388 1.043.388 1.511V57.04c0 .495-.161.976-.268 1.525-1.379.508-2.717.267-4.136.241l-.884-1.565c-1.178.976-2.369 1.725-3.855 1.979-3.521.615-6.68-1.565-7.255-5.109a14.45 14.45 0 0 1-.188-2.287l-.027-9.188c0-.655.161-1.311.241-1.953 1.593-.374 3.012-.348 4.578-.094.094.588.255 1.15.268 1.712l.014 7.65.026 2.046c.107 1.712.763 2.581 2.062 2.795 1.887.308 3.186-.214 3.828-1.712.295-.682.402-1.471.429-2.22l.04-7.396.053-2.688zm-50.212 11.971c.228.174.308.227.348.294.549.736.83 1.672 1.861 1.993 1.178.361 2.356.361 3.534.147.763-.134 1.325-.736 1.339-1.351a1.43 1.43 0 0 0-.897-1.418c-.536-.241-1.111-.428-1.673-.602l-3.441-.963c-.883-.294-1.78-.615-2.57-1.097-1.847-1.11-2.691-2.795-2.436-4.948.241-2.06 1.392-3.477 3.32-4.133 2.904-1.003 5.863-.99 8.768-.013 2.115.709 3.306 2.715 3.293 5.176-.629.602-1.433.361-2.169.388h-1.847c-.295-.254-.455-.334-.536-.468-.415-.629-.656-1.418-1.526-1.605-1.271-.267-2.543-.294-3.775.12-.549.187-.789 1.15-.334 1.511.589.455 1.245.896 1.941 1.123 1.365.455 2.784.762 4.176 1.15l1.7.522c4.552 1.806 3.708 7.369 1.018 9.135-.629.415-1.312.816-2.035 1.043-3.039.936-6.051.829-8.982-.441-1.901-.829-3.146-2.274-3.628-4.333-.161-.682.187-1.19.897-1.217l3.654-.013zM79.289 26.427c1.593-.588 3.106-.254 4.525-.308.228.16.415.227.482.361.428.843.843 1.699 1.847 1.993 1.165.348 2.356.321 3.521-.013.321-.094.616-.294.87-.508.576-.441.616-1.351.027-1.765-.549-.388-1.165-.709-1.794-.909l-3.922-1.097c-.964-.321-1.928-.695-2.771-1.244-1.713-1.11-2.463-2.782-2.195-4.815s1.419-3.504 3.333-4.146c2.717-.909 5.515-.909 8.286-.147a4.99 4.99 0 0 1 2.851 2.033c.683.99 1.245 2.019 1.004 3.424-1.352.669-2.784.254-4.31.294-.121-.174-.308-.361-.415-.575-.361-.816-.857-1.458-1.78-1.672-1.098-.254-2.182-.281-3.239.201-.803.361-.991 1.284-.294 1.846.455.361.991.669 1.539.843.964.321 1.968.535 2.945.802l2.45.695c3.146 1.11 4.257 3.049 3.628 6.313-.469 2.394-2.195 3.651-4.337 4.173-2.49.615-5.073.588-7.563-.134-2.155-.629-3.748-1.979-4.511-4.133-.187-.441-.12-.963-.174-1.511zm71.71-6.914h-4.23c-.16-.187-.388-.348-.468-.562-.375-.963-1.058-1.551-2.062-1.712-1.111-.174-2.209-.187-3.213.441-.562.348-.709 1.11-.187 1.498.602.455 1.258.869 1.968 1.123 1.044.361 2.142.548 3.199.843.897.254 1.821.481 2.664.856 3.574 1.578 4.23 6.272 1.232 8.827-.991.842-2.129 1.485-3.441 1.538-1.86.08-3.761.187-5.595-.04-2.718-.334-4.739-1.805-5.716-4.467-.161-.428-.067-.95-.094-1.511 1.633-.428 3.146-.161 4.498-.241.268.281.428.388.495.522.429.856.951 1.658 1.955 1.886 1.178.267 2.369.267 3.534-.094.241-.067.455-.241.656-.401.615-.481.642-1.578-.027-1.993-.562-.361-1.218-.615-1.861-.816l-3.681-1.03c-.964-.321-1.941-.695-2.785-1.244-3.346-2.22-2.971-6.995.643-8.76a5.92 5.92 0 0 1 .95-.375c2.611-.695 5.221-.669 7.818.013 1.205.321 2.115 1.07 2.811 2.073.763 1.11.924 1.685.937 3.624zm110.693 35.334c.268 1.391.321 2.474-.054 3.678-.441.107-.923.308-1.405.334-5.984.281-12.222.094-14.029-.415-.576-1.872-.362-3.531 1.097-5.082 2.035-2.167 3.923-4.467 5.864-6.727.428-.508.83-1.043 1.204-1.525-.254-.629-.722-.522-1.124-.535-1.526-.027-3.066 0-4.592-.027-.669-.013-1.378.08-1.981-.535-.321-1.003-.321-2.073.067-3.263.469-.107.951-.281 1.433-.294 5.608-.241 11.432-.094 13.346.348l.12 2.969c.014.736-.455 1.244-.923 1.752l-6.961 7.797c-.268.308-.496.642-.844 1.083.83.468 1.607.241 2.316.281.683.04 1.366.013 2.035.013.763 0 1.526-.027 2.289 0 .683 0 1.339.08 2.142.147zM88.097 45.419l2.182-3.678c.495-.923 1.178-1.377 2.249-1.324 1.258.067 2.53-.053 4.002.12-.214.602-.294 1.097-.549 1.485l-4.016 5.898c-.321.481-.576 1.017-.897 1.605 1.74 3.036 3.936 5.737 5.783 8.947-.602.174-.964.361-1.339.374-.937.04-1.874-.053-2.798.04-1.299.134-2.075-.482-2.651-1.551-.442-.829-.91-1.632-1.392-2.434-.201-.334-.482-.629-.87-1.137l-2.236 3.919c-.455.816-1.111 1.244-2.075 1.19-1.325-.067-2.677.134-4.11-.241.094-1.444 1.057-2.247 1.633-3.237.562-.95 1.205-1.846 1.807-2.768l2.035-3.063c-.642-1.605-1.82-2.862-2.704-4.28-.883-1.431-1.834-2.809-2.865-4.4 2.021-.749 3.842-.388 5.769-.401l1.472 2.354 1.566 2.581zm46.544-4.788c1.553-.308 2.959-.214 4.485-.067.107.508.267.909.267 1.311l.014 18.082c0 1.297-.281 2.528-.91 3.664-2.022 3.718-7.323 5.002-10.857 2.608-2.101-1.418-3.039-3.691-2.637-6.379 1.914-.548 2.236-.548 4.27 0 .161.495.308 1.07.549 1.591.455 1.003 1.486 1.511 2.503 1.324.938-.174 1.62-.869 1.754-1.912.107-.843.121-1.699.121-2.541l.013-14.778c.013-.909-.121-1.859.428-2.902zm-7.816-8.64c-1.66.415-3.133.401-4.753.013-.107-.522-.281-1.003-.281-1.471V8.64c0-.334.107-.655.174-1.07 1.526-.802 3.093-.348 4.739-.361.121.669.268 1.15.281 1.645l.014 21.639c0 .415-.094.829-.174 1.498zm2.154.254c-.16-.669-.308-.99-.308-1.311l-.013-22.428c0-.321.147-.642.241-1.057 1.499-.495 2.972-.374 4.591-.107.094.535.241 1.016.241 1.498l.014 21.412c0 .334-.014.682-.054 1.016-.08.575-.442.95-1.004.963l-3.708.013zm-13.668 8.239l3.575-.053c.763-.04.977.535 1.311 1.177.576-.348 1.098-.736 1.687-1.003.536-.241 1.125-.374 1.7-.508.67-.16 1.339-.294 2.088.187.549 1.471.295 3.036.148 4.694l-2.196.16c-1.914.187-3.159 1.324-3.253 3.263l-.093 7.396c-.014.923.147 1.872-.348 2.809-1.326.468-2.678.294-3.989.094-.308-.04-.656-.522-.764-.883-.147-.468-.107-1.003-.107-1.525V42.503c.014-.548.134-1.123.241-2.02zm4.35-8.453c-1.365.468-2.784.281-4.203.134-.763-.843-.589-1.819-.589-2.715l.013-11.234.027-2.554c.027-.495.12-1.003.201-1.578 1.539-.482 3.012-.321 4.645-.147.107.629.254 1.19.281 1.752.294 9.215.174 14.203-.375 16.343zm12.25 26.829c-1.352 0-2.45.04-3.548-.013-.87-.04-1.218-.401-1.325-1.244-.054-.415-.054-.843-.054-1.27v-13.75c0-.575.108-1.15.188-1.832 1.553-.495 3.025-.388 4.645-.147.12.495.321.963.321 1.431l.027 15.019c0 .495-.134.976-.254 1.805zm51.631-18.376l.214 1.792v14.498a12.79 12.79 0 0 1-.04 1.017 1.12 1.12 0 0 1-.95 1.043c-.241.053-.509.053-.763.053-3.441.013-3.441.174-3.427-3.25l.04-12.465c0-.829-.161-1.699.482-2.528.442-.067.937-.187 1.432-.201l3.012.04zM115.205 7.249h4.484c.776 1.498.228 2.916.308 4.373-1.593.655-3.079.361-4.659.294-.669-1.511-.495-2.969-.133-4.668zm42.328 20.074c.121.147.201.214.215.281.776 4.24.321 4.882-4.364 4.052-.777-1.297-.563-2.688-.255-4.159 1.499-.615 2.985-.441 4.404-.174zm21.497 6.647c1.486-.254 2.892-.308 4.391.027.549 1.418.402 2.795.134 4.28-1.553.441-3.025.374-4.565.067-.549-1.485-.656-2.929.04-4.373zm-51.832-.04h4.551c.737 1.378.389 2.782.228 4.253-1.513.629-3.012.388-4.538.241-.79-1.404-.482-2.795-.241-4.494zm94.522 24.542c-.495-1.658-.495-2.969-.094-4.36 1.473-.736 2.986-.254 4.458-.361.83 1.511.522 2.902.308 4.36-1.513.762-3.012.374-4.672.361zm-82.54-20.089c-1.673.201-3.092.281-4.538-.053-.616-1.404-.535-2.782-.12-4.24 1.539-.548 3.012-.214 4.578-.214.495 1.551.388 2.929.08 4.507z" fill="#fff"/></svg>