<svg width="16" height="14" viewBox="0 0 16 14" fill="none" xmlns="http://www.w3.org/2000/svg">
<path d="M11.703 5.64713C11.5623 5.64713 11.4273 5.5915 11.3278 5.49247C11.2283 5.39345 11.1724 5.25914 11.1724 5.1191C11.1724 4.97906 11.2283 4.84475 11.3278 4.74573C11.4273 4.64671 11.5623 4.59107 11.703 4.59107C11.7818 4.59107 11.8573 4.55994 11.913 4.50451C11.9687 4.44909 12 4.37392 12 4.29554C12 4.21716 11.9687 4.14198 11.913 4.08656C11.8573 4.03114 11.7818 4 11.703 4H5.12659C4.82804 4.00078 4.54194 4.11914 4.33084 4.32922C4.11973 4.53929 4.00078 4.82398 4 5.12107V13.206C4 13.4166 4.08407 13.6185 4.23371 13.7674C4.38335 13.9163 4.5863 14 4.79792 14H11.207C11.4166 13.9985 11.6171 13.9149 11.7653 13.7675C11.9135 13.62 11.9975 13.4204 11.999 13.2119V5.94464C11.9993 5.90574 11.9918 5.86718 11.9771 5.83116C11.9623 5.79514 11.9406 5.76237 11.9131 5.73473C11.8856 5.70709 11.8529 5.68513 11.8168 5.67009C11.7808 5.65506 11.7421 5.64726 11.703 5.64713ZM5.13649 4.59107L5.12659 4.59403H10.7071C10.6706 4.66207 10.6414 4.73372 10.62 4.8078H8.8697C8.83069 4.8078 8.79207 4.81545 8.75604 4.8303C8.72001 4.84515 8.68727 4.86692 8.65969 4.89436C8.63211 4.92181 8.61023 4.95439 8.59531 4.99024C8.58038 5.0261 8.5727 5.06453 8.5727 5.10334C8.5727 5.14215 8.58038 5.18058 8.59531 5.21644C8.61023 5.25229 8.63211 5.28487 8.65969 5.31232C8.68727 5.33976 8.72001 5.36153 8.75604 5.37638C8.79207 5.39123 8.83069 5.39888 8.8697 5.39888H10.6121C10.6354 5.48387 10.6686 5.56586 10.7111 5.64319H5.13649C4.99576 5.64319 4.8608 5.58756 4.76128 5.48853C4.66177 5.38951 4.60587 5.2552 4.60587 5.11516C4.60587 4.97512 4.66177 4.84081 4.76128 4.74179C4.8608 4.64277 4.99576 4.58713 5.13649 4.58713V4.59107ZM11.405 13.205C11.405 13.2573 11.3842 13.3074 11.347 13.3443C11.3099 13.3813 11.2595 13.402 11.207 13.402H4.81376C4.76125 13.402 4.71089 13.3813 4.67376 13.3443C4.63663 13.3074 4.61577 13.2573 4.61577 13.205V6.11211C4.77847 6.19839 4.96005 6.24339 5.14441 6.24313H11.403V13.203L11.405 13.205Z" fill="#9E9E9E"/>
<path d="M14.8828 7.50797V7.15734C14.921 5.29843 14.2329 3.50019 12.9698 2.15822C11.7068 0.816248 9.97225 0.0404658 8.14782 0.00153853C6.3234 -0.0373887 4.55852 0.663728 3.24144 1.95065C1.92436 3.23757 1.16297 5.00488 1.12476 6.86379C1.12476 6.96164 1.12476 7.05949 1.12476 7.15734V7.48045C0.806414 7.54988 0.521072 7.72848 0.316372 7.98642C0.111671 8.24436 0 8.56604 0 8.89775C0 9.22946 0.111671 9.55114 0.316372 9.80908C0.521072 10.067 0.806414 10.2456 1.12476 10.315V10.3884C1.12476 10.5506 1.188 10.7062 1.30056 10.8209C1.41313 10.9356 1.56579 11 1.72498 11H2.8734C3.03259 11 3.18526 10.9356 3.29782 10.8209C3.41038 10.7062 3.47362 10.5506 3.47362 10.3884V7.46516C3.47362 7.30297 3.41038 7.14741 3.29782 7.03272C3.18526 6.91803 3.03259 6.8536 2.8734 6.8536H1.74399C1.8227 5.21603 2.51657 3.67205 3.68188 2.54144C4.84719 1.41083 6.39466 0.780224 8.00377 0.780224C9.61288 0.780224 11.1604 1.41083 12.3257 2.54144C13.491 3.67205 14.1848 5.21603 14.2636 6.8536H13.1431C12.984 6.8536 12.8313 6.91803 12.7187 7.03272C12.6062 7.14741 12.5429 7.30297 12.5429 7.46516V10.3884C12.5429 10.5506 12.6062 10.7062 12.7187 10.8209C12.8313 10.9356 12.984 11 13.1431 11H14.2756C14.4347 11 14.5874 10.9356 14.7 10.8209C14.8125 10.7062 14.8758 10.5506 14.8758 10.3884V10.3456C15.1941 10.2757 15.4793 10.0967 15.6839 9.83855C15.8884 9.58039 16 9.2586 16 8.9268C16 8.595 15.8884 8.27321 15.6839 8.01505C15.4793 7.75688 15.1941 7.57792 14.8758 7.50797H14.8828ZM1.12476 9.08071C1.12392 9.09395 1.12392 9.10723 1.12476 9.12046V9.6617C0.975114 9.59929 0.846872 9.49327 0.756114 9.35692C0.665356 9.22056 0.616119 9.05995 0.614577 8.8952H0.602573C0.603299 8.72748 0.653473 8.56385 0.746586 8.42554C0.839699 8.28723 0.971455 8.18062 1.12476 8.11954V9.08071ZM2.8734 7.46516V10.3884H1.73799V7.46516H2.8734ZM14.2776 10.0714V10.3772L13.1451 10.3864V7.46516H14.2756L14.2776 10.0714ZM15.3439 9.2336C15.3026 9.34014 15.2403 9.43691 15.1608 9.51791C15.0813 9.59892 14.9863 9.66242 14.8818 9.7045V8.14604C14.9821 8.18659 15.0737 8.24691 15.1511 8.32354C15.2286 8.40017 15.2904 8.4916 15.3332 8.59261C15.3759 8.69362 15.3987 8.80223 15.4002 8.91221C15.4017 9.0222 15.3819 9.13141 15.3419 9.2336H15.3439Z" fill="#9E9E9E"/>
</svg>
