<svg width="60" height="60" viewBox="0 0 60 60" fill="none" xmlns="http://www.w3.org/2000/svg">
<path d="M28.75 55C18.7325 55 13.725 55 10.6125 51.3375C7.5 47.68 7.5 41.785 7.5 30C7.5 18.215 7.5 12.3225 10.6125 8.66C13.725 4.9975 18.7325 5 28.75 5C38.7675 5 43.775 5 46.8875 8.66C49.3925 11.61 49.8825 16.0025 49.9775 23.75M20 20H37.5M20 32.5H27.5" stroke="white" stroke-width="3" stroke-linecap="round" stroke-linejoin="round"/>
<path d="M49.0251 45.2625C50.4664 44.2149 51.539 42.7379 52.0893 41.0431C52.6395 39.3484 52.6391 37.523 52.0882 35.8285C51.5372 34.1341 50.464 32.6575 49.0223 31.6105C47.5806 30.5634 45.8444 29.9997 44.0626 30H43.4351C41.6535 30.0002 39.9177 30.5643 38.4764 31.6116C37.0351 32.6588 35.9623 34.1354 35.4116 35.8297C34.861 37.5241 34.8608 39.3493 35.4111 41.0437C35.9615 42.7382 37.034 44.215 38.4751 45.2625M38.4751 45.2625C39.9155 46.3127 41.6526 46.8774 43.4351 46.875H44.0601C45.8427 46.8774 47.5797 46.3127 49.0201 45.2625L50.4776 49.85C51.0326 51.6 51.3126 52.475 51.2351 53.02C51.0776 54.155 50.1526 54.995 49.0601 55C48.5351 55 47.7501 54.59 46.1776 53.765C45.5026 53.41 45.1676 53.235 44.8226 53.13C44.1213 52.9202 43.3739 52.9202 42.6726 53.13C42.3276 53.235 41.9901 53.41 41.3176 53.765C39.7451 54.59 38.9601 55.0025 38.4351 55C37.3426 54.995 36.4176 54.155 36.2601 53.02C36.1851 52.475 36.4601 51.6 37.0176 49.85L38.4751 45.2625Z" stroke="white" stroke-width="3" stroke-linecap="round" stroke-linejoin="round"/>
</svg>
