<svg width="16" height="16" viewBox="0 0 16 16" fill="none" xmlns="http://www.w3.org/2000/svg">
<path d="M10.6667 15.1666H5.33333C2.9 15.1666 1.5 13.7666 1.5 11.3333V4.66665C1.5 2.23331 2.9 0.833313 5.33333 0.833313H10.6667C13.1 0.833313 14.5 2.23331 14.5 4.66665V11.3333C14.5 13.7666 13.1 15.1666 10.6667 15.1666ZM5.33333 1.83331C3.42667 1.83331 2.5 2.75998 2.5 4.66665V11.3333C2.5 13.24 3.42667 14.1666 5.33333 14.1666H10.6667C12.5733 14.1666 13.5 13.24 13.5 11.3333V4.66665C13.5 2.75998 12.5733 1.83331 10.6667 1.83331H5.33333Z" fill="#FF7B58"/>
<path d="M12.3333 6.16667H11C9.98663 6.16667 9.16663 5.34667 9.16663 4.33333V3C9.16663 2.72667 9.39329 2.5 9.66663 2.5C9.93996 2.5 10.1666 2.72667 10.1666 3V4.33333C10.1666 4.79333 10.54 5.16667 11 5.16667H12.3333C12.6066 5.16667 12.8333 5.39333 12.8333 5.66667C12.8333 5.94 12.6066 6.16667 12.3333 6.16667Z" fill="#FF7B58"/>
<path d="M8.00004 9.16669H5.33337C5.06004 9.16669 4.83337 8.94002 4.83337 8.66669C4.83337 8.39335 5.06004 8.16669 5.33337 8.16669H8.00004C8.27337 8.16669 8.50004 8.39335 8.50004 8.66669C8.50004 8.94002 8.27337 9.16669 8.00004 9.16669Z" fill="#FF7B58"/>
<path d="M10.6667 11.8333H5.33337C5.06004 11.8333 4.83337 11.6066 4.83337 11.3333C4.83337 11.06 5.06004 10.8333 5.33337 10.8333H10.6667C10.94 10.8333 11.1667 11.06 11.1667 11.3333C11.1667 11.6066 10.94 11.8333 10.6667 11.8333Z" fill="#FF7B58"/>
</svg>
