<svg width="16" height="8" viewBox="0 0 16 8" fill="none" xmlns="http://www.w3.org/2000/svg">
<path d="M12.342 0.0125069C12.242 0.00543294 12.142 0.00139094 12.073 0.0024015C12.043 0.0024015 8.93806 -0.231039 7.69406 3.9052C6.60707 7.52099 4.09409 7.36031 3.95609 7.35021C3.90609 7.35021 3.85609 7.35021 3.80609 7.35021C3.23726 7.32454 2.68455 7.15129 2.20121 6.84714C1.71786 6.54298 1.32016 6.11818 1.0464 5.61363C0.772646 5.10909 0.632064 4.5418 0.638196 3.96643C0.644328 3.39105 0.796967 2.82696 1.08141 2.32849C1.36586 1.83002 1.77252 1.41397 2.26224 1.1204C2.75196 0.826839 3.30822 0.665656 3.87747 0.652378C4.44671 0.639101 5.00975 0.774175 5.51234 1.04459C6.01494 1.31501 6.44017 1.71166 6.74707 2.19633L7.28507 1.84668C6.9183 1.26929 6.41065 0.797002 5.81098 0.475273C5.2113 0.153543 4.53979 -0.00680306 3.86104 0.00966334C3.18229 0.0261297 2.51916 0.218854 1.93545 0.569293C1.35174 0.919731 0.867107 1.41609 0.528177 2.0106C0.189248 2.60512 0.00743122 3.27778 0.00022301 3.96386C-0.0069852 4.64994 0.160657 5.32635 0.48702 5.928C0.813382 6.52965 1.28748 7.0363 1.86369 7.39918C2.4399 7.76206 3.09884 7.96897 3.77709 8C3.83609 8 3.89509 8 3.92709 8C3.92709 8 3.96809 8 4.03309 8C4.59108 8 7.19307 7.79789 8.30606 4.09417C9.39305 0.478377 11.911 0.640067 12.044 0.649162C12.128 0.649162 12.212 0.649162 12.294 0.658257C12.8571 0.70161 13.3998 0.889542 13.8708 1.20424C14.3419 1.51894 14.7256 1.94998 14.9856 2.45652C15.2456 2.96305 15.3733 3.52829 15.3566 4.09867C15.3399 4.66906 15.1794 5.22568 14.8902 5.7158C14.601 6.20592 14.1928 6.61329 13.7042 6.8993C13.2155 7.18532 12.6628 7.3405 12.0982 7.35015C11.5336 7.3598 10.9759 7.22359 10.478 6.95443C9.98012 6.68527 9.55847 6.29209 9.25305 5.81213L8.71506 6.16179C9.07912 6.73485 9.58201 7.20443 10.176 7.526C10.7701 7.84756 11.4355 8.01045 12.1093 7.99921C12.7831 7.98797 13.4429 7.80298 14.0261 7.46178C14.6093 7.12058 15.0965 6.63448 15.4417 6.04959C15.7869 5.4647 15.9784 4.80039 15.9983 4.11969C16.0181 3.43898 15.8656 2.76443 15.5551 2.16002C15.2446 1.55561 14.7865 1.04136 14.2242 0.666063C13.6619 0.29076 13.014 0.0668405 12.342 0.0155388V0.0125069Z" fill="#9E9E9E"/>
</svg>
