<svg width="16" height="16" viewBox="0 0 16 16" fill="none" xmlns="http://www.w3.org/2000/svg">
<path d="M15.608 0.388067C15.4413 0.223136 15.2345 0.104561 15.008 0.0440688C14.8969 0.0136637 14.7822 -0.00114473 14.667 6.89788e-05H4C3.505 0.000598385 3.03043 0.197469 2.68042 0.547483C2.3304 0.897497 2.13353 1.37207 2.133 1.86706V13.333H0.267C0.196187 13.333 0.128275 13.3611 0.0782025 13.4112C0.0281303 13.4613 0 13.5292 0 13.6L0 14.133C0.000529409 14.628 0.197401 15.1026 0.547416 15.4526C0.897432 15.8026 1.372 15.9995 1.867 16H12.533C12.8864 15.9995 13.2251 15.8589 13.475 15.609C13.7249 15.3591 13.8655 15.0204 13.866 14.667V2.66706H15.733C15.8038 2.66706 15.8717 2.63893 15.9218 2.58886C15.9719 2.53878 16 2.47087 16 2.40006V1.33306C15.9997 0.978574 15.8587 0.6387 15.608 0.388067ZM1.867 15.467C1.51328 15.4667 1.17413 15.3261 0.924012 15.076C0.673896 14.8259 0.533265 14.4867 0.533 14.133V13.866H10.667V14.133C10.6667 14.3813 10.7161 14.6272 10.8123 14.8561C10.9084 15.085 11.0494 15.2924 11.227 15.466L1.867 15.467ZM13.579 0.566067C13.563 0.588066 13.55 0.612066 13.535 0.635066C13.5072 0.679844 13.4822 0.726262 13.46 0.774066C13.448 0.800732 13.4367 0.827399 13.426 0.854065C13.4065 0.905686 13.3901 0.958451 13.377 1.01206C13.371 1.03706 13.363 1.06206 13.358 1.08706C13.3419 1.16843 13.3336 1.25113 13.333 1.33406V14.667C13.333 14.7721 13.3123 14.8761 13.2721 14.9732C13.2319 15.0702 13.173 15.1584 13.0987 15.2327C13.0244 15.307 12.9362 15.3659 12.8391 15.4061C12.7421 15.4463 12.6381 15.467 12.533 15.467C12.1795 15.4665 11.8406 15.3257 11.5907 15.0756C11.3408 14.8256 11.2003 14.4866 11.2 14.133V13.6C11.2 13.5292 11.1719 13.4613 11.1218 13.4112C11.0717 13.3611 11.0038 13.333 10.933 13.333H2.667V1.86706C2.66726 1.51352 2.80776 1.17452 3.05766 0.92443C3.30756 0.674344 3.64646 0.533596 4 0.533067H13.6C13.593 0.543067 13.587 0.555067 13.579 0.566067ZM15.466 2.13306H13.866V1.33306C13.866 1.12089 13.9503 0.917409 14.1003 0.76738C14.2503 0.617352 14.4538 0.533067 14.666 0.533067C14.7336 0.532672 14.8009 0.541761 14.866 0.560067C15.0035 0.595827 15.1293 0.666829 15.231 0.766066C15.3056 0.840452 15.3647 0.928831 15.405 1.02613C15.4454 1.12343 15.4661 1.22774 15.466 1.33306V2.13306Z" fill="#9E9E9E"/>
<path d="M8 3C7.60444 3 7.21776 3.1173 6.88886 3.33706C6.55996 3.55682 6.30362 3.86918 6.15224 4.23463C6.00087 4.60009 5.96126 5.00222 6.03843 5.39018C6.1156 5.77814 6.30608 6.13451 6.58579 6.41421C6.86549 6.69392 7.22186 6.8844 7.60982 6.96157C7.99778 7.03874 8.39992 6.99913 8.76537 6.84776C9.13082 6.69638 9.44318 6.44004 9.66294 6.11114C9.8827 5.78224 10 5.39556 10 5C10 4.73736 9.94827 4.47728 9.84776 4.23463C9.74725 3.99198 9.59993 3.7715 9.41421 3.58579C9.2285 3.40007 9.00802 3.25275 8.76537 3.15224C8.52272 3.05173 8.26264 3 8 3ZM8 6.42796C7.71758 6.42796 7.4415 6.34421 7.20667 6.1873C6.97184 6.0304 6.78882 5.80738 6.68074 5.54646C6.57266 5.28553 6.54438 4.99842 6.59948 4.72142C6.65458 4.44442 6.79058 4.18998 6.99028 3.99028C7.18998 3.79058 7.44442 3.65458 7.72142 3.59948C7.99842 3.54438 8.28553 3.57266 8.54646 3.68074C8.80738 3.78882 9.0304 3.97184 9.18731 4.20667C9.34421 4.44149 9.42796 4.71758 9.42796 5C9.42796 5.18752 9.39102 5.37321 9.31926 5.54646C9.2475 5.7197 9.14232 5.87712 9.00972 6.00972C8.87712 6.14232 8.7197 6.2475 8.54646 6.31926C8.37321 6.39102 8.18752 6.42796 8 6.42796Z" fill="#9E9E9E"/>
<path d="M11.9995 9.67583C11.9968 9.63502 11.9845 9.59538 11.9633 9.56008L10.3953 6.91173C10.458 6.87512 10.5126 6.82678 10.556 6.76951C10.6153 6.6646 10.652 6.54895 10.6637 6.42968C10.6755 6.3104 10.6621 6.19004 10.6243 6.07603C10.5984 5.98013 10.5893 5.88065 10.5972 5.78177C10.649 5.70204 10.7134 5.63086 10.7881 5.57088C10.8902 5.4992 10.9761 5.40764 11.0402 5.30196C11.1044 5.19629 11.1454 5.07878 11.1607 4.95686C11.1456 4.83509 11.1049 4.71768 11.0411 4.61201C10.9773 4.50635 10.8919 4.4147 10.7901 4.34283C10.7154 4.28286 10.651 4.21167 10.5992 4.13194C10.5913 4.03307 10.6004 3.93359 10.6264 3.83768C10.6641 3.72367 10.6775 3.60331 10.6658 3.48404C10.654 3.36476 10.6173 3.24911 10.558 3.14421C10.4734 3.05647 10.3713 2.98657 10.258 2.93883C10.1447 2.89109 10.0225 2.86652 9.89911 2.86662C9.79901 2.86023 9.70063 2.83804 9.60781 2.8009C9.54416 2.72669 9.49328 2.64288 9.45713 2.55274C9.41905 2.43708 9.35693 2.33034 9.27466 2.2392C9.19238 2.14805 9.09173 2.07448 8.979 2.02307C8.85976 2.00003 8.73692 2.00148 8.61829 2.02731C8.49966 2.05315 8.38783 2.10281 8.28992 2.17315C8.20077 2.22612 8.10289 2.26362 8.00063 2.28398C7.89827 2.26139 7.80071 2.22156 7.71234 2.16628C7.6144 2.096 7.50258 2.04637 7.38395 2.02053C7.26533 1.9947 7.1425 1.99323 7.02327 2.01621C6.91053 2.06761 6.80988 2.14119 6.72761 2.23233C6.64533 2.32347 6.58321 2.43021 6.54513 2.54588C6.509 2.63602 6.45812 2.71983 6.39446 2.79404C6.30135 2.83137 6.20261 2.85357 6.10215 2.85975C5.97883 2.85991 5.85684 2.8847 5.74369 2.93261C5.63054 2.98052 5.52863 3.05052 5.44422 3.13832C5.38491 3.24322 5.34826 3.35888 5.33651 3.47815C5.32476 3.59742 5.33817 3.71778 5.37591 3.8318C5.40182 3.9277 5.41098 4.02718 5.40303 4.12606C5.35126 4.20579 5.28684 4.27697 5.21218 4.33695C5.1102 4.40872 5.02454 4.50032 4.96058 4.606C4.89661 4.71167 4.85574 4.82912 4.84052 4.95097C4.85562 5.07274 4.89634 5.19015 4.96012 5.29581C5.02391 5.40148 5.10938 5.49313 5.21118 5.565C5.28584 5.62497 5.35026 5.69615 5.40203 5.77588C5.40998 5.87476 5.40081 5.97424 5.37491 6.07014C5.33717 6.18416 5.32376 6.30452 5.33551 6.42379C5.34725 6.54306 5.38391 6.65872 5.44321 6.76362C5.48677 6.82117 5.54177 6.86955 5.60493 6.90585L4.03593 9.5542C4.01308 9.59284 4.00072 9.63654 4.00003 9.68116C3.99934 9.72578 4.01033 9.76982 4.03196 9.80913C4.0536 9.84843 4.08516 9.88169 4.12365 9.90574C4.16214 9.92979 4.20628 9.94383 4.25189 9.94655L5.31564 10.0093L5.90126 10.8754C5.92591 10.9116 5.95938 10.9412 5.99866 10.9615C6.03794 10.9819 6.08179 10.9924 6.12626 10.9922H6.1343C6.17992 10.9908 6.22443 10.9781 6.26363 10.9553C6.30283 10.9325 6.33541 10.9003 6.3583 10.8617L8.00063 8.09074L9.64397 10.8695C9.66685 10.9081 9.69943 10.9403 9.73863 10.9632C9.77783 10.986 9.82235 10.9987 9.86797 11H9.876C9.9204 11 9.96411 10.9893 10.0032 10.9687C10.0423 10.9482 10.0756 10.9185 10.1 10.8823L10.6856 10.0162L11.7494 9.95341C11.8202 9.94887 11.8863 9.91711 11.9332 9.86508C11.98 9.81305 12.0039 9.74499 11.9995 9.67583ZM6.11019 10.2398L5.78072 9.74939L6.23274 8.98431L5.76866 8.72242L5.31564 9.48848L4.71295 9.45317L6.14032 7.04905C6.22793 7.05454 6.31391 7.07478 6.39446 7.10889C6.45809 7.18311 6.50897 7.26692 6.54513 7.35705C6.58321 7.47271 6.64533 7.57945 6.72761 7.67059C6.80988 7.76173 6.91053 7.83531 7.02327 7.88672C7.07675 7.90399 7.13268 7.91293 7.18901 7.9132C7.31127 7.90807 7.43091 7.87694 7.53957 7.82198L6.11019 10.2398ZM7.45921 7.27662C7.37661 7.32895 7.28562 7.36741 7.19001 7.3904C7.12068 7.31477 7.0662 7.22732 7.02929 7.13243C6.9617 6.961 6.85201 6.80841 6.70987 6.68809C6.54764 6.59235 6.36376 6.53711 6.17448 6.52723C6.07262 6.5197 5.97279 6.49549 5.87916 6.45563C5.87016 6.35686 5.87865 6.25732 5.90427 6.16137C5.95356 5.98112 5.95666 5.79181 5.91331 5.61012C5.84005 5.44256 5.72549 5.29531 5.57982 5.18148C5.51353 5.1187 5.37892 4.99119 5.37892 4.94607C5.37892 4.90095 5.51654 4.77343 5.57982 4.71066C5.72481 4.59665 5.83869 4.4494 5.9113 4.28202C5.95494 4.1004 5.95218 3.9111 5.90327 3.73077C5.87769 3.63481 5.86853 3.53538 5.87614 3.43651C5.97159 3.39624 6.07365 3.37298 6.17749 3.36785C6.36438 3.361 6.54676 3.30983 6.70886 3.21875C6.85067 3.09835 6.96002 2.94576 7.02728 2.77442C7.06437 2.68056 7.11771 2.59363 7.18499 2.51743H7.19101C7.28526 2.54203 7.37529 2.58004 7.45821 2.63023C7.62139 2.73175 7.8077 2.7924 8.00063 2.80679C8.19321 2.79224 8.37916 2.7316 8.54205 2.63023C8.62523 2.57897 8.71604 2.54059 8.81125 2.51645C8.88058 2.59208 8.93506 2.67953 8.97197 2.77442C9.03956 2.94585 9.14925 3.09843 9.29139 3.21875C9.45362 3.31449 9.6375 3.36974 9.82678 3.37962C9.928 3.3857 10.0275 3.40824 10.1211 3.44632C10.1301 3.54508 10.1216 3.64463 10.096 3.74058C10.0467 3.92082 10.0436 4.11014 10.0869 4.29183C10.1602 4.45938 10.2748 4.60663 10.4204 4.72047C10.4867 4.78226 10.6213 4.90977 10.6213 4.95588C10.6213 5.00198 10.4837 5.12851 10.4204 5.19128C10.2754 5.30529 10.1616 5.45254 10.089 5.61993C10.0453 5.80154 10.0481 5.99085 10.097 6.17117C10.1226 6.26713 10.1317 6.36656 10.1241 6.46544C10.0287 6.5057 9.92661 6.52896 9.82276 6.5341C9.63347 6.54389 9.44957 6.59915 9.28737 6.69496C9.14556 6.81537 9.03622 6.96795 8.96895 7.13929C8.93187 7.23316 8.87852 7.32009 8.81125 7.39628C8.71453 7.3743 8.62243 7.33613 8.53903 7.28348C8.37807 7.17876 8.19314 7.11441 8.00063 7.09614C7.8077 7.11187 7.62172 7.17386 7.45921 7.27662ZM10.6846 9.49142L10.2316 8.72536L9.76752 8.98725L10.2195 9.75233L9.89006 10.2428L8.46169 7.82394C8.61864 7.91028 8.80397 7.93316 8.97799 7.8877C9.09073 7.83629 9.19138 7.76271 9.27365 7.67157C9.35592 7.58043 9.41805 7.47369 9.45613 7.35803C9.49255 7.26781 9.54378 7.18399 9.60781 7.10987C9.68836 7.0758 9.77433 7.05556 9.86194 7.05003L11.2843 9.45611L10.6846 9.49142Z" fill="#9E9E9E"/>
</svg>
