<svg width="71" height="70" viewBox="0 0 71 70" fill="none" xmlns="http://www.w3.org/2000/svg">
<path d="M32.3992 18.0823C32.2199 18.0045 32.0217 17.9812 31.8292 18.0152C31.6368 18.0492 31.4586 18.1391 31.3169 18.2736L21.0165 28.0003H14C13.7348 28.0003 13.4804 28.1056 13.2929 28.2931C13.1054 28.4806 13 28.7348 13 29V42.999C13 43.2642 13.1054 43.5185 13.2929 43.706C13.4804 43.8934 13.7348 43.9988 14 43.9988H21.0165L31.3127 53.7264C31.498 53.9021 31.7436 54 31.999 54C32.1353 54.0003 32.2702 53.9723 32.3951 53.9177C32.5747 53.8408 32.7277 53.7129 32.8353 53.5498C32.9428 53.3867 33.0001 53.1956 33 53.0003V19.0008C33.0006 18.8057 32.944 18.6148 32.8373 18.4516C32.7305 18.2883 32.5782 18.1599 32.3992 18.0823ZM31.0041 50.6779L22.1008 42.2719C21.9147 42.0973 21.6688 42.0005 21.4136 42.0014H15V29.9997H21.4136C21.6689 29.9995 21.9144 29.9016 22.0998 29.7261L31.0041 21.3211V50.6779Z" fill="white"/>
<path d="M47.482 18.1745C47.2815 18.0318 47.0314 17.9732 46.7868 18.0114C46.5422 18.0497 46.3231 18.1818 46.1778 18.3786C46.0324 18.5754 45.9727 18.8208 46.0117 19.0609C46.0507 19.3009 46.1852 19.5159 46.3858 19.6586C48.7825 21.3532 50.7346 23.5826 52.081 26.163C53.4273 28.7434 54.1295 31.601 54.1295 34.5C54.1295 37.399 53.4273 40.2566 52.081 42.837C50.7346 45.4174 48.7825 47.6468 46.3858 49.3414C46.2865 49.4121 46.2023 49.5012 46.1381 49.6038C46.074 49.7063 46.031 49.8203 46.0117 49.9391C45.9923 50.058 45.9971 50.1794 46.0256 50.2965C46.0541 50.4135 46.1058 50.524 46.1778 50.6214C46.2497 50.7189 46.3406 50.8014 46.4451 50.8644C46.5496 50.9274 46.6657 50.9696 46.7868 50.9886C46.9079 51.0075 47.0316 51.0029 47.1509 50.9749C47.2702 50.9469 47.3827 50.8962 47.482 50.8255C50.1185 48.9615 52.2657 46.5091 53.7467 43.6707C55.2277 40.8322 56 37.6889 56 34.5C56 31.3111 55.2277 28.1678 53.7467 25.3293C52.2657 22.4909 50.1185 20.0385 47.482 18.1745Z" fill="white"/>
<path d="M41.5145 24.1534C41.4046 24.0835 41.2822 24.0362 41.1543 24.0142C41.0263 23.9921 40.8953 23.9958 40.7688 24.025C40.6422 24.0542 40.5226 24.1083 40.4167 24.1843C40.3108 24.2602 40.2208 24.3565 40.1517 24.4677C40.0826 24.5789 40.0358 24.7027 40.014 24.8322C39.9922 24.9616 39.9959 25.0942 40.0247 25.2222C40.0536 25.3502 40.107 25.4713 40.1821 25.5784C40.2572 25.6855 40.3524 25.7766 40.4623 25.8466C42.164 26.9232 43.5671 28.4199 44.5399 30.196C45.5126 31.9722 46.023 33.9694 46.023 36C46.023 38.0306 45.5126 40.0278 44.5399 41.804C43.5671 43.5801 42.164 45.0768 40.4623 46.1534C40.3524 46.2233 40.2572 46.3145 40.1821 46.4216C40.107 46.5287 40.0536 46.6497 40.0247 46.7778C39.9959 46.9058 39.9922 47.0384 40.014 47.1678C40.0358 47.2973 40.0826 47.4211 40.1517 47.5323C40.2208 47.6435 40.3108 47.7398 40.4167 47.8157C40.5226 47.8917 40.6422 47.9458 40.7688 47.975C40.8953 48.0042 41.0263 48.0079 41.1543 47.9858C41.2822 47.9638 41.4046 47.9165 41.5145 47.8465C43.4993 46.5898 45.1359 44.8432 46.2703 42.7709C47.4048 40.6985 48 38.3685 48 35.9995C48 33.6305 47.4048 31.3004 46.2703 29.2281C45.1359 27.1557 43.4993 25.4092 41.5145 24.1524V24.1534Z" fill="white"/>
<path d="M37.5867 31.1982C37.4821 31.1197 37.3632 31.0628 37.2368 31.0305C37.1103 30.9983 36.9788 30.9915 36.8498 31.0105C36.5891 31.0488 36.3543 31.1897 36.1969 31.4024C36.0395 31.615 35.9724 31.8819 36.0104 32.1443C36.0484 32.4068 36.1885 32.6432 36.3996 32.8017C36.8997 33.1693 37.3065 33.6505 37.5869 34.2063C37.8674 34.7621 38.0135 35.3766 38.0135 36C38.0135 36.6234 37.8674 37.238 37.5869 37.7937C37.3065 38.3495 36.8997 38.8307 36.3996 39.1983C36.2951 39.2768 36.2069 39.3752 36.1401 39.488C36.0733 39.6008 36.0292 39.7257 36.0104 39.8557C35.9916 39.9856 35.9984 40.118 36.0303 40.2453C36.0623 40.3726 36.1189 40.4923 36.1969 40.5976C36.2748 40.7029 36.3726 40.7917 36.4846 40.859C36.5966 40.9262 36.7207 40.9706 36.8498 40.9895C36.9788 41.0085 37.1103 41.0017 37.2368 40.9695C37.3632 40.9372 37.4821 40.8803 37.5867 40.8018C38.3348 40.2481 38.9431 39.525 39.3623 38.6908C39.7816 37.8566 40 36.9349 40 36C40 35.0651 39.7816 34.1434 39.3623 33.3092C38.9431 32.4751 38.3348 31.7519 37.5867 31.1982Z" fill="white"/>
<path d="M35 69C53.7777 69 69 53.7777 69 35C69 16.2223 53.7777 1 35 1C16.2223 1 1 16.2223 1 35C1 53.7777 16.2223 69 35 69Z" stroke="white" stroke-width="2"/>
</svg>
