<svg width="63" height="19" viewBox="0 0 63 19" fill="none" xmlns="http://www.w3.org/2000/svg">
<path d="M49.4751 18.9942C47.6792 18.9619 45.4683 19.0395 43.2575 18.9554C42.7194 18.936 42.1877 18.8519 41.669 18.7161C39.9769 18.2762 38.8682 17.2217 38.3366 15.5591C38.0513 14.6599 37.967 13.7348 37.967 12.8032C37.9605 10.5972 37.9605 8.38469 37.967 6.17868C37.967 5.50587 38.0189 4.83307 38.181 4.17968C38.745 1.8831 40.2751 0.472801 42.6091 0.116993C43.0889 0.0458309 43.5687 -0.0059233 44.0549 0.00054595C47.757 0.0070152 51.4525 0.000546246 55.1545 0.0134847C56.2437 0.019954 57.3265 0.129931 58.3898 0.40164C60.7497 1.01622 61.9621 2.42651 62.1825 4.85248C62.2344 5.42177 62.2668 5.9846 62.2668 6.55389C62.2603 8.64346 62.2668 10.7266 62.2603 12.8161C62.2603 13.5083 62.2085 14.1941 62.1047 14.8798C61.7482 17.144 60.6006 18.315 58.3314 18.7419C57.2227 18.949 56.1011 18.9813 54.973 18.9942C53.2808 19.0072 51.5887 18.9942 49.4751 18.9942ZM47.9644 9.5815C47.9644 11.1859 47.9644 12.7902 47.9644 14.3881C47.9644 14.841 47.9709 14.8475 48.4118 14.8475C49.7085 14.8475 51.0051 14.8539 52.3018 14.8475C52.7492 14.8475 53.1965 14.7957 53.6374 14.6793C56.0363 14.0517 57.8905 11.7422 57.5339 8.86341C57.2227 6.36628 54.973 4.36729 52.3926 4.34788C51.0635 4.33494 49.7344 4.34141 48.3988 4.34788C47.9774 4.34788 47.9709 4.35435 47.9709 4.77485C47.9579 6.37275 47.9644 7.97713 47.9644 9.5815ZM46.1167 9.58797C46.1167 7.96419 46.1167 6.34688 46.1167 4.72309C46.1167 4.35435 46.1037 4.34788 45.7471 4.34788C45.0534 4.34141 44.3661 4.34141 43.6724 4.34788C43.3029 4.34788 43.2964 4.35435 43.2964 4.71663C43.2899 5.54469 43.2964 6.37275 43.2964 7.20082C43.2964 9.60091 43.2964 11.9945 43.2964 14.3946C43.2964 14.841 43.3029 14.8539 43.6919 14.8539C44.3467 14.8604 45.008 14.8604 45.6628 14.8539C46.1167 14.8539 46.1231 14.8475 46.1231 14.4011C46.1167 12.7967 46.1167 11.1923 46.1167 9.58797Z" fill="#FEFDFF"/>
<path d="M22.024 13.0686C22.024 12.8293 22.024 12.6481 22.024 12.467C22.024 9.96986 22.024 7.46627 22.024 4.96914C22.024 4.84622 22.0305 4.72978 22.024 4.60686C22.011 4.41278 22.0888 4.34162 22.2898 4.32868C22.9836 4.2834 22.9836 4.27693 22.9836 4.9562C22.9836 8.06144 22.9836 11.1667 22.9836 14.2654C22.9836 14.8736 23.0549 14.7959 22.4325 14.8283C22.1148 14.8412 21.9332 14.7183 21.7452 14.4789C19.6381 11.7877 17.5245 9.10946 15.4045 6.42472C15.2942 6.2824 15.171 6.14654 15.0154 5.95893C14.9052 6.18536 14.9376 6.37296 14.9376 6.5541C14.9376 9.09005 14.9376 11.626 14.9376 14.1555C14.9376 14.8541 14.8663 14.9124 14.1726 14.8218C14.0235 14.8024 13.9587 14.7442 13.9587 14.5954C13.9587 14.4919 13.9587 14.3884 13.9587 14.2849C13.9587 11.1473 13.9587 8.00968 13.9587 4.8721C13.9587 4.788 13.9651 4.69743 13.9587 4.61333C13.9457 4.41925 14.0235 4.34809 14.2245 4.32868C14.6978 4.28987 15.0414 4.38691 15.372 4.80741C17.4273 7.44686 19.5279 10.0604 21.6091 12.674C21.7063 12.8034 21.7841 12.9587 22.024 13.0686Z" fill="#FEFDFF"/>
<path d="M6.11379 4.03727C9.09615 3.98551 11.3135 6.19799 11.4367 9.21913C11.4756 10.1572 11.3589 11.0823 10.9569 11.9427C10.1011 13.7929 8.6488 14.815 6.61301 14.9962C5.95818 15.0544 5.29688 15.022 4.65502 14.8538C2.58033 14.304 1.35497 12.926 0.888161 10.8753C0.641792 9.80136 0.693659 8.71453 1.01135 7.65357C1.71155 5.39581 3.63713 4.0308 6.11379 4.03727ZM1.75694 9.59435C1.7699 9.76902 1.78287 10.0278 1.8088 10.2801C1.97089 11.878 3.05362 13.8576 5.50435 14.1358C8.16903 14.4398 9.71856 12.8225 10.2308 11.0758C10.4382 10.3707 10.4706 9.6461 10.4123 8.92802C10.2372 6.89667 8.90814 5.17585 6.76213 4.91061C4.27898 4.60656 2.5544 5.91982 1.95792 7.97704C1.80881 8.47517 1.7699 8.99271 1.75694 9.59435Z" fill="#FEFDFF"/>
<path d="M25.7783 9.57519C25.7783 7.97081 25.7783 6.36644 25.7783 4.76207C25.7783 4.3351 25.7847 4.32863 26.1932 4.32863C28.3716 4.32863 30.55 4.32863 32.7285 4.32863C32.8581 4.32863 33.0526 4.26393 33.111 4.39979C33.2018 4.60033 33.1693 4.8397 33.124 5.05965C33.111 5.13081 33.0267 5.15022 32.9554 5.15022C32.8192 5.15022 32.6766 5.15669 32.5404 5.15669C30.777 5.15669 29.0135 5.15669 27.25 5.15669C26.7767 5.15669 26.7897 5.13081 26.7897 5.60307C26.7897 6.58639 26.7897 7.56972 26.7897 8.55304C26.7897 9.01236 26.7961 9.01236 27.2824 9.01236C28.7866 9.01236 30.2907 9.01236 31.7949 9.01236C31.8986 9.01236 32.0023 9.00589 32.1061 9.01236C32.2422 9.01883 32.4302 8.95414 32.4886 9.08352C32.5793 9.28407 32.5534 9.5299 32.5015 9.74338C32.4756 9.85983 32.333 9.83395 32.2292 9.83395C31.8467 9.83395 31.4707 9.83395 31.0882 9.83395C29.7915 9.83395 28.4948 9.83395 27.1981 9.83395C26.7961 9.83395 26.7832 9.84042 26.7832 10.2221C26.7767 11.3413 26.7767 12.4605 26.7832 13.5861C26.7832 13.9678 26.7897 13.9743 27.1916 13.9743C28.9551 13.9743 30.7186 13.9743 32.4821 13.9743C32.5664 13.9743 32.6571 13.9678 32.7414 13.9743C32.9035 13.9937 33.124 13.8837 33.2082 14.0778C33.2925 14.2654 33.2471 14.4853 33.2277 14.6924C33.2212 14.77 33.1499 14.8023 33.0786 14.8023C32.9554 14.8088 32.8387 14.8088 32.7155 14.8088C30.5695 14.8088 28.43 14.8088 26.284 14.8088C26.2126 14.8088 26.1478 14.8023 26.0765 14.8088C25.8236 14.8347 25.7523 14.7182 25.7523 14.4789C25.7653 13.4438 25.7588 12.4087 25.7588 11.3736C25.7783 10.7849 25.7783 10.1768 25.7783 9.57519Z" fill="#FEFDFF"/>
<path d="M47.964 9.58166C47.964 7.97728 47.964 6.37291 47.964 4.77501C47.964 4.3545 47.9705 4.3545 48.3919 4.34804C49.721 4.34804 51.0501 4.3351 52.3857 4.34804C54.9661 4.37391 57.2158 6.36644 57.527 8.86357C57.8836 11.7489 56.0294 14.0519 53.6305 14.6794C53.1961 14.7959 52.7488 14.8412 52.2949 14.8476C50.9982 14.8541 49.7016 14.8541 48.4049 14.8476C47.964 14.8476 47.9575 14.8412 47.9575 14.3883C47.9575 12.7839 47.964 11.1796 47.964 9.58166ZM51.5299 12.8227C51.8216 12.8227 52.1199 12.8098 52.4116 12.8227C53.5073 12.868 54.3242 12.3181 55.0439 11.5871C55.407 11.2184 55.3681 11.0955 54.9401 10.772C54.6354 10.5456 54.2918 10.3838 53.9417 10.2351C53.5008 10.0474 53.4684 9.8663 53.7861 9.49755C53.8185 9.45874 53.8639 9.42639 53.8963 9.38758C54.3631 8.87651 54.5122 8.28134 54.3307 7.61501C54.1103 6.80635 53.4749 6.32116 52.7034 6.38585C51.9707 6.44407 51.3743 7.08453 51.2965 7.88024C51.2381 8.50129 51.4132 9.03177 51.854 9.48462C52.1393 9.77573 52.1134 9.91806 51.7762 10.1445C51.491 10.3386 51.1668 10.4679 50.8491 10.6038C50.486 10.7591 50.2073 11.0049 50.0257 11.3542C49.8377 11.723 49.8831 12.1241 49.8766 12.5187C49.8701 12.7451 49.9609 12.8227 50.1813 12.8163C50.6287 12.8163 51.0825 12.8227 51.5299 12.8227Z" fill="#003F97"/>
<path d="M46.1165 9.58796C46.1165 11.1923 46.1165 12.7967 46.1165 14.4011C46.1165 14.8475 46.11 14.8475 45.6562 14.8539C45.0014 14.8604 44.3401 14.8604 43.6852 14.8539C43.2962 14.8475 43.2897 14.841 43.2897 14.3946C43.2897 11.9945 43.2897 9.6009 43.2897 7.20081C43.2897 6.37274 43.2833 5.54468 43.2897 4.71662C43.2897 4.35434 43.3027 4.34787 43.6658 4.34787C44.3595 4.3414 45.0467 4.3414 45.7405 4.34787C46.1035 4.34787 46.11 4.36081 46.11 4.72309C46.123 6.34687 46.1165 7.96418 46.1165 9.58796Z" fill="#003F97"/>
<path d="M51.5302 12.8227C51.0828 12.8227 50.629 12.8162 50.1816 12.8227C49.9612 12.8291 49.8704 12.745 49.8769 12.5251C49.8899 12.1305 49.838 11.7294 50.026 11.3606C50.2076 11.0048 50.4864 10.7654 50.8494 10.6102C51.1671 10.4743 51.4913 10.3514 51.7765 10.1509C52.1072 9.92444 52.1331 9.78212 51.8544 9.491C51.407 9.03815 51.2319 8.50767 51.2968 7.88663C51.3746 7.09091 51.9711 6.45692 52.7037 6.39223C53.4752 6.32754 54.1106 6.81273 54.331 7.62139C54.5125 8.28772 54.3634 8.88289 53.8966 9.39396C53.8642 9.43277 53.8188 9.46512 53.7864 9.50394C53.4687 9.86622 53.5011 10.0474 53.942 10.2414C54.2921 10.3902 54.6357 10.552 54.9404 10.7784C55.3748 11.1018 55.4073 11.2248 55.0442 11.5935C54.3245 12.3245 53.5076 12.8744 52.4119 12.8291C52.1202 12.8162 51.8219 12.8227 51.5302 12.8227Z" fill="#FEFDFF"/>
</svg>
