<svg width="16" height="16" viewBox="0 0 16 16" fill="none" xmlns="http://www.w3.org/2000/svg">
<path d="M11.66 6.40001L3.73329 11.18C3.26663 11.46 2.66663 11.1267 2.66663 10.58V5.24668C2.66663 2.92001 5.17996 1.46668 7.19996 2.62668L10.26 4.38668L11.6533 5.18668C12.1133 5.46001 12.12 6.12668 11.66 6.40001Z" fill="#7875FC"/>
<path d="M12.06 10.3067L9.35996 11.8667L6.66662 13.42C5.69996 13.9733 4.60662 13.86 3.81329 13.3C3.42662 13.0333 3.47329 12.44 3.87996 12.2L12.3533 7.11999C12.7533 6.87999 13.28 7.10666 13.3533 7.56666C13.52 8.59999 13.0933 9.71332 12.06 10.3067Z" fill="#7875FC"/>
</svg>
