<svg width="18" height="18" viewBox="0 0 18 18" fill="none" xmlns="http://www.w3.org/2000/svg">
<path d="M9.92481 7.001L7.17293 4.92965V13.0704L9.92481 10.999L12.5865 9L9.92481 7.001ZM9.92481 7.001L7.17293 4.92965V13.0704L9.92481 10.999L12.5865 9L9.92481 7.001ZM9.92481 7.001L7.17293 4.92965V13.0704L9.92481 10.999L12.5865 9L9.92481 7.001ZM8.07519 1.82714V0C6.26165 0.180905 4.61053 0.904523 3.27519 1.999L4.55639 3.29246C5.55789 2.51457 6.75789 1.98995 8.07519 1.82714ZM3.28421 4.56784L1.99399 3.28342C0.902256 4.62211 0.180451 6.27739 0 8.09548H1.82256C1.98496 6.77487 2.50827 5.57186 3.28421 4.56784ZM1.82256 9.90452H0C0.180451 11.7226 0.902256 13.3779 1.99399 14.7166L3.28421 13.4231C2.50827 12.4281 1.98496 11.2251 1.82256 9.90452ZM3.27519 16.001C4.61053 17.0955 6.27068 17.8191 8.07519 18V16.1729C6.75789 16.01 5.55789 15.4854 4.55639 14.7075L3.27519 16.001ZM18 9C18 13.6673 14.4632 17.5206 9.92481 18V16.1729C13.4617 15.7025 16.1955 12.6633 16.1955 9C16.1955 5.33668 13.4617 2.29749 9.92481 1.82714V0C14.4632 0.479397 18 4.33266 18 9Z" fill="#9E9E9E"/>
</svg>
