<svg width="18" height="18" viewBox="0 0 18 18" fill="none" xmlns="http://www.w3.org/2000/svg">
<path d="M13.245 17.0025C12.8475 17.0025 12.3375 16.875 11.7 16.5L9.4575 15.1725C9.225 15.0375 8.775 15.0375 8.55 15.1725L6.3 16.5C4.9725 17.2875 4.1925 16.9725 3.84 16.7175C3.495 16.4625 2.955 15.81 3.3075 14.31L3.84 12.0075C3.9 11.7675 3.78 11.355 3.6 11.175L1.74 9.31499C0.809997 8.38499 0.884997 7.58999 1.0125 7.19999C1.14 6.80999 1.545 6.11999 2.835 5.90249L5.2275 5.50499C5.4525 5.46749 5.775 5.22749 5.8725 5.02499L7.2 2.37749C7.8 1.16999 8.5875 0.98999 9 0.98999C9.4125 0.98999 10.2 1.16999 10.8 2.37749L12.12 5.01749C12.225 5.21999 12.5475 5.45999 12.7725 5.49749L15.165 5.89499C16.4625 6.11249 16.8675 6.80249 16.9875 7.19249C17.1075 7.58249 17.1825 8.37749 16.26 9.30749L14.4 11.175C14.22 11.355 14.1075 11.76 14.16 12.0075L14.6925 14.31C15.0375 15.81 14.505 16.4625 14.16 16.7175C13.9725 16.8525 13.6725 17.0025 13.245 17.0025ZM9 13.9425C9.3675 13.9425 9.735 14.0325 10.0275 14.205L12.27 15.5325C12.9225 15.9225 13.335 15.9225 13.4925 15.81C13.65 15.6975 13.7625 15.3 13.5975 14.565L13.065 12.2625C12.9225 11.64 13.155 10.8375 13.605 10.38L15.465 8.51999C15.8325 8.15249 15.9975 7.79249 15.9225 7.54499C15.84 7.29749 15.495 7.09499 14.985 7.01249L12.5925 6.61499C12.015 6.51749 11.385 6.05249 11.1225 5.52749L9.8025 2.88749C9.5625 2.40749 9.2625 2.12249 9 2.12249C8.7375 2.12249 8.4375 2.40749 8.205 2.88749L6.8775 5.52749C6.615 6.05249 5.985 6.51749 5.4075 6.61499L3.0225 7.01249C2.5125 7.09499 2.1675 7.29749 2.085 7.54499C2.0025 7.79249 2.175 8.15999 2.5425 8.51999L4.4025 10.38C4.8525 10.83 5.085 11.64 4.9425 12.2625L4.41 14.565C4.2375 15.3075 4.3575 15.6975 4.515 15.81C4.6725 15.9225 5.0775 15.915 5.7375 15.5325L7.98 14.205C8.265 14.0325 8.6325 13.9425 9 13.9425Z" fill="#FFBF43"/>
</svg>
