<svg xmlns="http://www.w3.org/2000/svg" width="260" height="118" fill="none"><g clip-path="url(#A)"><path d="M35.551 9.142c-.267 6.287-.684 12.148-3.472 17.539-2.97 5.744-7.51 9.771-13.374 12.403-.62.277-1.132.298-1.763.011C8.119 35.003 2.617 28.322.908 18.679.096 14.171.096 9.611 0 5.061c-.032-1.396.502-1.95 1.741-2.312C6.858 1.288 12.05.511 17.37.5c5.587-.011 11.067.661 16.44 2.227 1.25.362 1.891.874 1.763 2.291-.128 1.492-.021 3.005-.021 4.124zm-25.435 5.136c-1.026 0-2.04.032-3.066-.011-.801-.032-1.111.266-1.09 1.076a89.3 89.3 0 0 1 0 4.784c-.021.863.267 1.183 1.143 1.151 1.912-.064 3.824.011 5.726-.085 1.164-.064 1.453.394 1.41 1.46-.064 1.769.032 3.538-.032 5.307-.032 1.012.256 1.46 1.346 1.396 1.463-.085 2.938-.096 4.39 0 1.047.064 1.421-.256 1.389-1.321-.064-1.897.021-3.804-.021-5.712-.021-.831.299-1.076 1.09-1.065 1.998.021 3.995-.064 5.993-.043.78.011 1.143-.234 1.132-1.055a150.36 150.36 0 0 1-.011-4.912c.011-.757-.299-1.002-1.036-.98-1.998.032-3.995-.032-5.993.021-.951.032-1.218-.309-1.186-1.225.064-1.907-.021-3.815.043-5.711.032-.948-.32-1.236-1.239-1.204-1.549.064-3.108.075-4.657.011-.929-.043-1.282.245-1.239 1.183.064 1.502.053 3.005.032 4.518-.043 2.781.374 2.387-2.371 2.419-.598.011-1.175 0-1.752 0z" fill="#e91d24"/><g fill="#fff"><path d="M207.143 94.473v-2.259c0-.394-.085-.852.46-.959.374-.075.854-.192 1.057.277.235.554.427.33.759.096.897-.639 1.848-.65 2.692.085.395.341.587.277.993.021 1.912-1.183 3.451-.362 3.536 1.854l.032 3.314c.021.693-.278.938-.951.938s-.822-.373-.812-.938v-3.048c0-.618-.149-1.204-.886-1.247-.705-.043-1.058.48-1.111 1.087a29.09 29.09 0 0 0-.118 3.037c.011.682-.117 1.108-.929 1.087-.748-.021-.844-.458-.833-1.055l.01-2.781c.011-.618-.117-1.225-.833-1.311-.769-.085-1.111.522-1.175 1.172-.096 1.012-.107 2.025-.117 3.037-.011.576-.022 1.034-.812 1.055-.823.021-.972-.384-.951-1.066l-.011-2.398zm-49.609-1.076l-.011-3.58c-.01-.607.214-.874.855-.884 1.389-.021 2.756.043 4.081.447 1.495.448 2.425 1.769 2.553 3.538.149 2.057-.556 3.495-2.051 4.252-1.549.788-3.216.511-4.839.543-.545.011-.599-.416-.588-.842v-3.474zm1.891-.064l-.011 2.121c-.032.671.256.82.887.778 1.613-.096 2.681-1.065 2.82-2.621.128-1.545-.78-2.781-2.286-3.122-.93-.202-1.592-.128-1.421 1.108.075.575.011 1.161.011 1.737zm-94.614 2.461l1.057-3.634c.15-.618.417-.927 1.068-.948s.908.16.673.853l-1.538 4.795c-.203.725-.598.863-1.25.863-.641 0-1.1-.138-1.282-.852-.288-1.13-.641-2.238-1.239-3.367l-.919 3.25c-.16.639-.438.991-1.175.98-.716-.011-1.175-.17-1.399-.906l-1.453-4.401c-.117-.373-.673-.959.192-1.151.62-.139 1.25-.128 1.474.703.31 1.129.673 2.248 1.293 3.378l.908-3.207c.182-.778.62-.927 1.335-.916.716 0 1.036.288 1.207.948l1.047 3.612zm37.879-.959c0 .97.086 1.95-.021 2.92-.235 2.227-3.258 3.612-5.149 2.429-.481-.298-.502-.713-.353-1.15.214-.607.673-.298.993-.16 1.09.469 1.987.362 2.596-.757.117-.224.213-.522-.022-.735-.203-.181-.395.043-.587.107-1.474.49-2.532.192-3.269-.916-.801-1.204-.662-3.527.352-4.614.929-.991 2.03-1.215 3.227-.458.299.192.448.17.79-.021 1.079-.597 1.464-.309 1.474.959v2.387c-.01.011-.021.011-.032.011zm-1.666-.437c-.096-.884-.225-1.843-1.389-1.865-1.197-.032-1.378.97-1.389 1.854-.011.916.31 1.907 1.378 1.918 1.058.011 1.368-.927 1.4-1.907zm61.36 15.984l-.011-3.175c-.064-.959.321-1.247 1.229-1.183.918.064 1.848.042 2.766.224 2.393.49 3.536 1.811 3.525 4.198-.01 2.323-1.239 3.772-3.578 4.198-3.718.682-3.942.501-3.931-3.218v-1.044zm1.88.075h-.011v2.12c-.011.458.107.757.641.81 1.335.128 2.713-.874 3.055-2.248.353-1.428-.438-3.005-1.752-3.474-1.42-.512-1.933-.16-1.933 1.342v1.45zM87.927 97.712c-.791.032-1.036-.192-.726-.938l2.756-7.022c.246-.639.652-.831 1.325-.831.662.011 1.068.181 1.325.831l2.66 6.777c.128.352.652.874-.021 1.108-.545.192-1.463.32-1.624-.405-.513-2.227-2.254-1.279-3.525-1.471-.726-.107-.78.629-.961 1.076-.246.618-.577.98-1.207.874zm3.237-6.543l-.983 2.589c-.171.447.096.511.438.565 1.602.288 1.859 0 1.282-1.545-.171-.48-.171-1.044-.737-1.609zm108.224 4.615l.011-3.58c.021-.948.779-1.364 1.474-.735.406.373.545.288.929.085 1.677-.863 3.333-.106 3.824 1.716a4.85 4.85 0 0 1-.021 2.621c-.449 1.609-1.944 2.419-3.515 1.833-.747-.277-.972-.171-.929.597l.011 1.332c.01.575-.289.767-.833.767-.567 0-.962-.117-.951-.789v-3.847zm4.497-1.257c-.064-.916-.117-1.844-1.271-2.014-.844-.117-1.506.767-1.485 1.939.021.98.267 1.993 1.432 1.993 1.11 0 1.239-1.034 1.324-1.918zm-103.63 18.402l-.011-3.57c-.053-.959.502-1.311 1.196-.959.663.33 1.09.256 1.656-.064.214-.117.524-.085.78-.085 1.175.032 2.051.586 2.468 1.683.555 1.482.555 2.963-.545 4.231-.812.948-1.87 1.151-3.002.596-.63-.309-.78-.085-.758.512l.021 1.321c.064.725-.31.906-.951.917-.63.01-.865-.235-.844-.863l-.01-3.719zm1.773-1.226c.075.831.267 1.833 1.399 1.801 1.208-.032 1.357-1.076 1.336-2.067-.011-.906-.214-1.726-1.293-1.844-.844-.085-1.453.81-1.442 2.11zm-30.616-1.577l.011 3.847c.021.767-.449 1.023-.993.789-.737-.32-1.314-.171-1.966.127-.256.118-.609.075-.919.032-1.901-.266-2.938-2.163-2.404-4.411.47-2.014 1.763-2.739 3.771-2.014.684.245.78.032.769-.533v-1.588c-.053-.681.192-.948.897-.959.759-.01.865.373.855 1.002l-.021 3.708zm-1.784 1.396c-.107-.874-.192-1.928-1.453-1.907-1.164.021-1.335.97-1.325 1.907.011.981.224 2.025 1.41 2.003 1.079-.01 1.325-.99 1.367-2.003zm88.675-5.53h.662c.609.074 1.368.032 1.229.97-.139.905-.78.554-1.335.458-.77-.128-1.635-.139-1.87.788-.235.906.545 1.162 1.229 1.418.416.149.822.33 1.207.543.897.49 1.367 1.279 1.282 2.291-.086 1.055-.673 1.822-1.667 2.206-.983.383-1.976.362-3.012.138-.663-.149-.887-.458-.769-1.108.138-.799.619-.533 1.089-.394.342.096.695.181 1.036.181.684 0 1.282-.32 1.421-.98.128-.587-.406-.917-.929-1.13l-.737-.298c-1.667-.672-2.35-1.716-2.03-3.112.32-1.31 1.474-2.046 3.194-1.971zM53.679 88.868c.085.011.182 0 .267.021.62.138 1.709-.234 1.592.852-.107.97-.887.629-1.624.469-.449-.106-1.314.053-1.528.757-.246.799.31 1.204.983 1.492.534.224 1.079.415 1.57.703.876.522 1.25 1.3 1.154 2.344-.096 1.002-.673 1.62-1.506 2.025-1.047.501-2.147.437-3.258.181-.726-.16-.801-.607-.662-1.183.171-.693.63-.437 1.058-.309.598.192 1.175.373 1.795.021.919-.511.962-1.257.053-1.801-.299-.181-.652-.277-.983-.405-1.656-.671-2.329-1.684-2.051-3.122.235-1.3 1.474-2.099 3.141-2.046zm122.41 17.081c.118.011.47.011.823.064.609.096 1.154.277 1.015 1.076-.161.97-.759.405-1.207.341-1.218-.17-2.318.043-3.088 1.087-.705.949-.737 2.675-.096 3.666.737 1.14 1.859 1.396 3.141 1.31.449-.031 1.132-.799 1.314.331.171 1.065-.62.98-1.261 1.044-3.856.416-6.196-1.95-5.437-5.477.47-2.174 2.072-3.378 4.796-3.442zm-50.1-5.488c-.502-.021-1.036-.021-1.047-.714-.011-.607.374-.618.886-.639.973-.043 1.293-.629.951-1.556l-1.869-5.094c-.139-.373-.609-.906.053-1.087.556-.149 1.368-.394 1.656.554l.855 2.643c.064.192.213.48.363.501.352.075.374-.288.448-.522l.844-2.515c.235-.916.94-.97 1.56-.757.737.256.16.799.011 1.204l-2.286 6.074c-.534 1.343-1.336 1.939-2.425 1.907zm-44.386 5.488c.171.022.62.022 1.036.139.523.138.823.469.652 1.087-.182.703-.588.415-1.025.319-1.314-.298-2.51-.064-3.269 1.14-.705 1.119-.737 2.355-.075 3.517.705 1.247 1.912 1.47 3.215 1.332.502-.053 1.154-.629 1.261.437.096.873-.523.873-1.111.948-3.899.533-6.26-1.758-5.598-5.413.417-2.195 2.083-3.453 4.914-3.506zm62.097 5.648v-2.121c.011-1.108.524-1.524 1.453-1.012.502.277.726.149 1.154-.021 1.688-.714 3.205.181 3.333 1.992.085 1.194.021 2.387.042 3.58.011.672-.352.81-.929.8-.609-.011-.897-.235-.876-.874l.011-2.781c-.011-.672 0-1.428-.93-1.481s-1.356.607-1.442 1.417c-.085.916-.053 1.854-.032 2.781.011.586-.021 1.044-.822 1.023-.748-.011-1.037-.288-.972-1.044.064-.746.01-1.503.01-2.259zm-32.036-17.22v-2.12c.021-.98.715-1.449 1.42-.831.503.437.663.224 1.058.011 1.666-.895 3.312-.021 3.45 1.854.086 1.194.022 2.387.054 3.58.021.639-.299.852-.897.852-.641 0-.855-.288-.834-.906v-2.781c-.021-.746-.139-1.502-1.089-1.513-.855 0-1.25.65-1.314 1.407-.075.874-.064 1.769-.043 2.653.011.618.011 1.151-.865 1.151-.801 0-.972-.405-.93-1.098l-.01-2.259zm86.25.139c0 1.886-1.453 3.335-3.355 3.357-1.997.021-3.418-1.396-3.407-3.41a3.33 3.33 0 0 1 3.343-3.378c1.944-.021 3.429 1.47 3.419 3.431zm-4.957 0c.107.906.214 1.875 1.453 1.971 1.036.085 1.645-.746 1.634-2.089-.01-1.151-.651-1.939-1.581-1.875-1.196.075-1.453.938-1.506 1.993zm32.56-.054v-2.387c-.021-.97.78-1.108 1.228-.746.663.554.994.203 1.528-.043 1.421-.65 2.991.224 3.13 1.79.118 1.268.043 2.557.064 3.836.011.554-.246.799-.801.81-.588.011-.929-.171-.919-.82l-.01-3.048c-.032-.629-.193-1.289-1.005-1.332s-1.249.501-1.335 1.204c-.117.916-.107 1.843-.096 2.77.011.671.021 1.236-.919 1.225-.982-.011-.865-.661-.854-1.279l-.011-1.982zM57.621 111.554l-.011-2.387c-.032-.863.63-1.119 1.1-.81.748.491 1.25.16 1.901-.053 1.474-.469 2.831.416 2.948 1.961.096 1.225.021 2.472.053 3.708.021.661-.32.831-.908.831-.62 0-.876-.256-.855-.884l-.011-3.048c-.021-.597-.203-1.183-.94-1.225-.652-.043-1.068.351-1.303.937s-.085 1.247-.246 1.823c-.235.831.897 2.386-.812 2.397-1.837.021-.534-1.641-.908-2.461-.096-.224-.011-.522-.011-.789zm53.882.544c-.309 0-.63-.043-.929.01-.395.064-1.025-.309-1.132.309-.107.608.47.906.972 1.087.651.235 1.303.128 1.944-.128.31-.128.694-.415.887.096.181.458 0 .863-.417 1.14-.983.64-3.151.405-4.145-.458-1.079-.938-1.378-2.845-.673-4.273.609-1.247 1.88-1.865 3.312-1.63s2.681 1.982 2.414 3.335c-.085.458-.395.533-.78.522l-1.453-.01zm-.843-1.141c.309-.458 1.207.448 1.26-.554.032-.543-.481-.937-1.079-.916-.652.021-1.325.32-1.357.991-.032.81.748.181 1.176.479zm31.684.629c.021 1.865-1.443 3.314-3.365 3.357s-3.408-1.354-3.451-3.25c-.032-1.982 1.41-3.496 3.344-3.506 1.976-.011 3.461 1.438 3.472 3.399zm-5-.043c.086.97.235 1.908 1.464 2.014 1.014.075 1.634-.682 1.666-1.939.021-1.193-.641-2.078-1.602-2.014-1.207.075-1.442.959-1.528 1.939zm84.498-16.537c-.395 0-.801-.021-1.196.011-.288.021-.662-.128-.823.234-.171.416.161.661.428.874.747.597 1.57.469 2.393.202.309-.106.694-.458.897.043.171.426.085.927-.406 1.119-1.239.49-2.5.586-3.707-.128-1.399-.831-1.592-2.142-1.399-3.58.171-1.3.897-2.195 2.168-2.579a3.04 3.04 0 0 1 3.878 3.144c-.032.426-.214.65-.641.661h-1.592zm-2.093-1.428c.48.384 1.1.171 1.645.192.331.011.918.245.908-.384-.011-.661-.534-1.023-1.154-1.012-.652 0-1.164.352-1.399 1.204zm-35.509 1.417c-.31 0-.63-.032-.929.011-.363.043-.908-.224-1.036.298-.129.565.384.863.822 1.055.684.298 1.389.224 2.073-.064.32-.128.705-.384.876.128.128.394-.011.778-.396 1.034-.886.607-2.895.501-3.942-.234-1.175-.82-1.581-2.259-1.089-3.932.374-1.3 1.378-2.12 2.681-2.206 1.816-.128 3.237 1.279 3.216 3.133-.011.586-.246.799-.791.788-.491-.011-.983 0-1.463 0-.022 0-.022-.011-.022-.011zm-.78-1.151c.417-.256 1.24.352 1.218-.533-.011-.597-.566-.991-1.228-.948-.62.043-1.229.394-1.207 1.002.021.863.833.192 1.217.48zM55.976 112.545v.661c.053 1.715.043 1.726-1.624 1.151-.395-.139-.556.181-.812.309-1.026.479-1.987.383-2.842-.384-.588-.533-.758-1.215-.47-1.939.406-1.023 1.239-1.45 2.307-1.492.182-.011.363.01.534-.022.384-.074 1.036.278 1.09-.383s-.577-.853-1.111-.895c-.427-.032-.876.074-1.314.138-.299.043-.652.533-.865-.053-.16-.458-.011-.852.459-1.119 1.987-1.172 4.476.139 4.593 2.44.032.533 0 1.066 0 1.599.021-.011.032-.011.053-.011zm-1.731-.128c.053-.458-.235-.586-.652-.565-.758.043-1.613.043-1.773.991-.085.48.406.746.897.768.833.042 1.346-.341 1.528-1.194z"/><path d="M147.343 94.526c-.011 1.918-1.442 3.335-3.365 3.346-2.008.011-3.397-1.407-3.386-3.431.021-1.907 1.452-3.356 3.343-3.356 1.966 0 3.419 1.471 3.408 3.442zm-1.859-.107c0-1.055-.374-1.843-1.549-1.918-.929-.053-1.549.757-1.549 1.929 0 1.279.609 2.088 1.56 2.057 1.025-.032 1.538-.735 1.538-2.067zm24.538.587c-.31 0-.62-.021-.93.011-.363.043-.886-.245-1.015.298-.138.586.385.863.812 1.055.631.288 1.304.203 1.945-.021.309-.117.683-.469.897.011a.86.86 0 0 1-.353 1.151c-.908.586-2.927.448-3.931-.298-1.089-.799-1.527-2.184-1.153-3.687.341-1.385 1.313-2.259 2.659-2.419 1.891-.213 3.494 1.364 3.312 3.25-.043.426-.214.65-.641.661-.534 0-1.068 0-1.602-.011zm-.801-1.183c.395-.234 1.207.373 1.249-.469.032-.586-.544-1.044-1.196-.991-.588.043-1.25.32-1.229.991.032.789.77.256 1.176.469zm-61.072 1.172c-.352 0-.705-.021-1.058.011-.363.032-.908-.213-1.036.288-.149.575.363.863.801 1.055.673.298 1.379.202 2.062-.053.31-.117.684-.448.865.096.139.384.022.778-.352 1.055-1.004.757-3.333.479-4.348-.512-1.047-1.012-1.207-3.25-.331-4.55.801-1.193 2.414-1.641 3.771-1.044 1.004.437 1.869 1.971 1.752 3.047-.043.426-.224.639-.673.629-.492-.011-.972 0-1.464 0 .011-.011.011-.011.011-.021zm-.908-1.172c.385-.235 1.207.384 1.186-.544-.011-.597-.566-.927-1.133-.916-.662.021-1.346.384-1.292 1.076.064.703.822.16 1.239.384zm-15.169 17.774c0-1.993 1.442-3.442 3.408-3.41 1.934.032 3.322 1.428 3.344 3.356.021 1.95-1.463 3.421-3.44 3.389-1.966-.011-3.312-1.375-3.312-3.335zm1.795.032c.107.927.235 1.875 1.496 1.918 1.058.032 1.645-.778 1.613-2.121-.032-1.108-.737-1.929-1.645-1.833-1.197.128-1.421 1.013-1.464 2.036zm-6.217-3.442c1.976-.011 3.418 1.449 3.418 3.431 0 1.886-1.464 3.314-3.397 3.325-2.019.01-3.397-1.386-3.386-3.432.011-1.918 1.431-3.314 3.365-3.324zm-1.528 3.474c.053.895.182 1.843 1.442 1.907 1.015.053 1.634-.725 1.656-1.982.021-1.172-.694-2.099-1.634-2.014-1.186.128-1.432 1.002-1.464 2.089zM74.051 10.687l1.314-3.953c.139-.416.203-.906.78-.938.62-.043.673.469.801.884l.801 2.525c.128.394.043 1.055.577 1.066.652.011.502-.714.662-1.13l.833-2.515c.117-.373.203-.927.705-.778.566.16.214.629.096.991l-1.496 4.539c-.139.405-.192.916-.801.884-.598-.021-.63-.522-.758-.938L76.144 7l-1.474 4.486c-.128.384-.235.799-.758.778-.417-.021-.598-.32-.716-.682l-1.56-4.934c-.085-.288-.288-.65.107-.81.481-.192.609.256.716.575l1.335 4.262.256.011zm51.542 101.826v.799c.064 1.694.054 1.705-1.602 1.066-.395-.149-.555.16-.812.287-.972.469-1.891.395-2.724-.287-.652-.533-.887-1.215-.587-2.014.395-1.034 1.239-1.439 2.286-1.503l.662-.021c.363-.043.908.203.972-.384.053-.522-.406-.735-.855-.863-.534-.149-1.046 0-1.57.096-.288.054-.641.554-.865-.042-.171-.459 0-.853.438-1.119 1.944-1.183 4.497.138 4.615 2.397v1.588h.042zm-2.51-.661c-.705.064-1.506.118-1.624.991-.075.565.502.789 1.026.778.769-.01 1.239-.426 1.378-1.172.117-.629-.363-.565-.78-.597zm15.628-23.591c.47.021 1.058-.096 1.101.618.032.501-.171.799-.78.788-.534-.021-.716.416-.759.906-.053.65.321.714.834.682.438-.032.63.245.651.661.022.511-.235.746-.726.693-.759-.085-.748.384-.737.916l.021 3.442c.011.597-.192.895-.854.874-.599-.021-.908-.266-.898-.874l.011-3.175c0-.554.182-1.215-.758-1.194-.3.011-.481-.234-.492-.522-.011-.309.021-.725.395-.746.876-.043.769-.65.844-1.204.182-1.236.834-1.939 2.147-1.865zm9.529-80.377l-.01-3.452c-.022-.735.245-1.055 1.004-1.023l2.67.011c.332 0 .673.053.695.448.043.501-.353.533-.727.543-.352.011-.715.043-1.068-.011-1.271-.213-1.624.266-1.634 1.556 0 1.236.384 1.577 1.506 1.407.214-.032.449-.021.662 0 .363.032.962-.192.983.352s-.545.405-.929.405c-.182 0-.364.021-.534-.011-1.357-.245-1.71.288-1.71 1.652.011 1.353.353 1.875 1.71 1.63.341-.064.705-.011 1.068-.011s.769-.021.748.501c-.022.416-.385.384-.705.405-3.729.341-3.729.352-3.739-3.325l.01-1.076zM92.222 23.719v-2.962c0-.373 0-.767.502-.746.427.011.406.384.406.703v7.939c0 .522-.203.98-.769.437-.417-.394-.62-.107-.876.096-.587.458-1.239.416-1.891.224-1.164-.341-1.923-1.47-1.966-2.994-.032-1.364.139-2.664 1.56-3.378 1.026-.533 1.955-.171 3.034.682zm-.043 2.387c-.021-.352 0-.714-.085-1.044-.224-.831-.716-1.396-1.656-1.438-.908-.043-1.378.479-1.634 1.257-.31.948-.299 1.918.117 2.834.288.65.844.991 1.592.948.684-.043 1.143-.384 1.399-1.023a3.59 3.59 0 0 0 .267-1.534zm.042 14.513v-2.834c0-.341.053-.671.438-.693.417-.032.47.309.47.65v8.077c0 .266-.235.703-.363.565-.833-.831-1.399.202-2.083.234-1.047.053-1.944-.245-2.478-1.193-.791-1.407-.812-2.877-.096-4.316.513-1.023 1.613-1.332 2.916-.906l1.196.415zm-3.6 2.589c-.021 1.79.919 2.866 2.222 2.493 1.079-.309 1.335-1.204 1.357-2.174.032-1.012.064-2.099-1.079-2.589-1.474-.629-2.489.309-2.5 2.27zm87.938 52.213l1.133-3.356c.224-.757.748-1.012 1.41-.81.897.277.246.874.117 1.279l-1.57 4.22c-.235.682-.598.959-1.357.98-.801.021-1.079-.384-1.303-1.023l-1.549-4.23c-.128-.373-.769-.927.022-1.193.608-.213 1.346-.234 1.634.639l1.175 3.495a1.29 1.29 0 0 0 .288 0zm-5.416-84.02c-1.153.959-2.254 1.172-3.386.341-1.025-.746-1.463-2.461-1.047-4.007.321-1.193 1.068-1.897 2.329-2.046.459-.053.887-.011 1.292.202.193.107.438.373.556.32 2.051-.938 1.09.842 1.143 1.385.15 1.353.096 2.739.085 4.102-.021 2.142-1.944 3.879-4.262 3.08-.331-.117-.769-.171-.694-.639.107-.639.513-.235.812-.171l.256.053c2.094.405 2.895-.245 2.916-2.621zm.043-2.429c-.021-.703-.021-1.428-.534-1.993-.577-.639-1.795-.693-2.393-.107-.897.874-.929 3.122-.043 4.049.641.682 1.71.693 2.361.011.513-.533.609-1.236.609-1.961zM80.652 91.063l.833.085c.545.043.812.32.758.863-.053.703-.545.544-.983.49-.267-.032-.523-.096-.791-.085-.331.011-.609.192-.673.522-.075.33.214.458.449.565l1.228.501c.705.33 1.1.874 1.111 1.662.011.842-.395 1.439-1.143 1.79-.876.405-1.784.48-2.724.288-.598-.128-.844-.447-.758-1.034.117-.799.577-.384.972-.288a3.37 3.37 0 0 0 .919.096c.395 0 .673-.224.801-.586.15-.448-.224-.618-.523-.799a1.65 1.65 0 0 0-.491-.203c-1.154-.288-2.051-.874-1.763-2.195.288-1.247 1.314-1.684 2.777-1.673zm82.736-84.521V3.633c0-.298-.075-.693.363-.714.427-.032.459.309.459.639v7.96c0 .256-.128.735-.277.639-1.037-.682-1.827.501-2.82.266-1.122-.256-1.817-.863-2.158-1.918-.492-1.524-.449-3.016.758-4.188 1.122-1.087 2.361-.597 3.675.224zm-.075 2.547c.021-1.556-.716-2.557-1.869-2.547-1.101.011-1.763.938-1.784 2.472-.011 1.598.694 2.579 1.848 2.568 1.079-.011 1.784-.991 1.805-2.493zm74.403-2.782c.449.266.588-.16.834-.288 1.506-.82 3.215.032 3.311 1.726.075 1.279.032 2.568.021 3.847 0 .266-.021.586-.363.618-.448.043-.47-.32-.47-.629l-.01-3.325c-.032-.831-.214-1.63-1.282-1.716s-1.667.501-1.891 1.481c-.256 1.14-.086 2.291-.128 3.442-.011.298.053.703-.374.735-.534.043-.502-.437-.502-.756l-.011-7.832c0-.33.032-.693.427-.703.534-.011.428.448.428.789l.01 2.611zM74.788 91.042l1.143.149c.513.096.587.48.534.906-.064.49-.406.501-.79.426l-.652-.117c-.438-.043-.844.064-.951.511-.107.458.342.554.662.693.887.373 1.923.575 2.104 1.769.139.927-.192 1.673-1.068 2.078-1.09.501-2.222.639-3.322.064-.342-.181-.278-.629-.182-.97.139-.469.449-.256.737-.16a3.16 3.16 0 0 0 .78.149c.513.053 1.025.021 1.143-.607.118-.597-.406-.703-.79-.895-.16-.075-.331-.117-.502-.16-.972-.266-1.56-.831-1.485-1.897.064-1.034.759-1.545 1.677-1.811.288-.106.609-.096.962-.128zm52.953 20.651c-.086-.927.438-2.014-1.015-2.227-.246-.032-.235-.661-.139-.682 1.111-.267 1.122-1.705 2.168-2.004.171-.053.342-.074.513-.106.128 1.119 1.004 1.62 1.773 2.259.193.16-.032.778-.491.724-1.079-.117-.983.555-.961 1.247v1.588c.01.586.138 1.076.876 1.065.448-.01.651.214.651.64-.01.501-.331.65-.78.714-1.41.223-2.446-.554-2.574-1.982-.043-.448-.021-.895-.021-1.236z"/><path d="M129.973 6.318c1.87-1.247 3.611-.458 3.75 1.737.075 1.151.032 2.302.032 3.452 0 .352-.011.778-.524.725-.406-.043-.406-.405-.406-.725V8.193c-.01-.884-.267-1.588-1.313-1.652-1.015-.064-1.656.511-1.795 1.428-.16 1.087-.096 2.206-.128 3.303-.011.384.128.927-.438.938s-.47-.533-.481-.916V3.729c0-.341-.118-.799.406-.82.491-.021.481.405.491.767l.064 2.248c-.096.149-.138.32.011.437.075.053.224-.021.331-.043zm103.802 88.294c-.097-.938.416-1.971-.994-2.184-.299-.043-.299-.746-.139-.799.94-.298 1.047-1.353 1.741-1.811.535-.352 1.24-.618 1.154.533-.043.597.118.938.791.895.491-.032.737.235.726.725-.011.543-.385.639-.822.618-.62-.032-.738.309-.706.831l.022 1.993c.021.565.149 1.076.886 1.044.428-.021.684.171.673.618-.01.512-.363.65-.79.735-1.431.288-2.457-.629-2.553-2.291l.011-.906zM97.99 22.653c1.389.224 2.382.938 2.649 2.461.15.874.011 1.375-1.025 1.321-.844-.053-1.688-.011-2.532-.021-.619-.011-.769.256-.598.831.331 1.14 1.154 1.566 2.649 1.343.363-.053.951-.565 1.09.171.107.597-.545.597-.951.682-1.656.362-3.034-.32-3.6-1.748-.662-1.662-.139-3.708 1.186-4.518.481-.288 1.261-.352.737-1.236-.043-.075.16-.288.267-.426.299-.426.481-.98 1.1-1.066.096-.011.288.117.299.192.011.565-.556.756-.791 1.161-.16.266-.523.384-.481.853zm.075 3.101c.523-.384 1.613.543 1.634-.714.011-.789-.481-1.428-1.421-1.417-.983.011-1.698.597-1.72 1.492-.032 1.119 1.036.245 1.506.639zm-14.507.682c-.352 0-.555-.053-.705.011-.491.192-1.431-.522-1.453.533-.011.831.523 1.492 1.453 1.652.534.085 1.058 0 1.581-.139.256-.075.556-.128.662.224.085.298-.128.48-.374.618-.962.522-2.831.16-3.579-.693-1.389-1.588-.951-4.497.876-5.552.395-.224.844-.32.555-.948-.15-.33.192-.565.363-.81.288-.416.62-1.172 1.143-.746.459.384-.299.789-.588 1.098-.577.639-.79 1.055.32 1.247.588.107 1.004.533 1.314 1.044.406.671.737 1.492.363 2.131-.449.746-1.41.107-1.934.33zm-.652-.703c.566-.341 1.645.511 1.731-.629.064-.778-.449-1.556-1.485-1.492-.983.053-1.688.682-1.699 1.556-.021 1.023.994.213 1.453.565zm9.337 32.031v-2.803c0-.362-.021-.778.481-.767.427.011.395.394.395.703v7.843c0 .522-.117 1.119-.79.49-.417-.394-.662-.032-.919.096-.353.181-.641.447-1.068.437-1.218-.021-1.987-.639-2.414-1.737-.62-1.598-.32-3.623.716-4.465.983-.788 2.019-.831 3.044-.032.086.075.224.107.556.235zm-3.632 2.44c-.053 1.726.758 2.803 2.008 2.653 1.025-.128 1.613-1.044 1.613-2.525s-.588-2.376-1.624-2.504c-.748-.085-1.293.181-1.634.852-.256.469-.353.991-.363 1.524zM65.227 6.467c.502-.266.812-.479 1.164-.607 1.421-.511 2.788.256 2.927 1.748.118 1.321.075 2.653.086 3.975 0 .32-.064.671-.491.629-.321-.032-.353-.362-.363-.629l-.011-3.314c-.032-.82-.15-1.598-1.282-1.652-1.154-.064-1.795.479-1.902 1.566-.107 1.098-.043 2.206-.075 3.314-.011.298.011.703-.395.735-.523.032-.47-.416-.47-.767V3.633c0-.309-.053-.693.395-.693.427 0 .406.373.406.682l.011 2.845zM55.068 63.593c-2.083.021-3.472-.757-4.209-2.408-.748-1.673-.684-3.367.459-4.88 1.164-1.524 2.777-1.95 4.615-1.652.449.075 1.004.139.876.735-.128.575-.652.256-1.015.213-2.703-.33-4.294.852-4.412 3.282-.128 2.717 1.527 4.22 4.252 3.889.385-.043 1.015-.554 1.122.075.128.714-.684.629-1.175.714-.235.053-.513.032-.513.032zm-.32-17.092c-1.795-.021-3.194-.799-3.91-2.451-.758-1.779-.652-3.57.63-5.104 1.186-1.428 2.81-1.747 4.572-1.438.385.064.897.16.78.693-.128.618-.62.277-.972.224-1.442-.234-2.777-.053-3.718 1.162-1.015 1.311-.961 2.824-.395 4.284.534 1.396 1.998 1.982 3.782 1.758.427-.053 1.164-.714 1.271.181.085.639-.748.586-1.239.671-.267.053-.534.021-.801.021zm64.436 47.972c-.011-2.302 1.549-3.708 3.739-3.378.534.085.951.234.919.884-.032.693-.481.554-.951.533-1.367-.043-2.051.671-1.998 2.025.054 1.311.855 2.035 2.158 1.907.395-.043.791-.277.908.352s-.203.863-.769.991c-2.243.543-3.995-.895-4.006-3.314zM98.407 60.62c-.182 0-.363-.032-.534.011-.491.128-1.367-.416-1.421.448-.043.789.449 1.524 1.367 1.726.577.128 1.143.011 1.709-.117.246-.053.545-.213.684.139.118.32-.117.511-.385.586-1.132.298-2.265.511-3.29-.309-1.058-.852-1.41-2.504-.929-4.007.406-1.268 1.239-2.035 2.553-2.174 1.474-.149 2.97 1.812 2.521 3.218-.117.362-.352.469-.694.469l-1.581.011zm-.331-.714c.534-.33 1.528.447 1.624-.618.064-.778-.438-1.471-1.367-1.481-.972-.011-1.741.575-1.773 1.46-.043 1.13 1.047.256 1.517.639zm89.828 33.203l-.01-3.847c-.022-.693.213-.948.908-.948s.908.277.897.959l-.011 7.427c.011.629-.096 1.012-.833 1.034-.78.021-.983-.33-.961-1.055l.01-3.57zM54.555 28.61l1.581-.224c.256-.032.566-.128.673.213.117.394-.192.565-.502.639-1.634.405-3.205.245-4.519-.863-1.495-1.268-1.805-4.081-.769-5.903.951-1.684 3.13-2.568 5.063-2.067.385.096.865.17.758.724-.128.639-.641.33-.972.266-1.495-.298-2.874-.149-3.814 1.194-1.026 1.46-.855 3.079-.192 4.571.438 1.023 1.41 1.662 2.692 1.449zm79.018 14.609v-1.854c.011-.384-.213-.842.096-1.151.428-.426.534.245.823.32.299.075.427-.288.652-.362 1.41-.458 3.322-.224 3.439 1.939l.032 3.58c0 .33-.085.693-.448.714-.492.021-.492-.405-.492-.767v-3.314c.022-.98-.523-1.47-1.41-1.588-.876-.117-1.421.384-1.688 1.183-.384 1.161-.117 2.366-.192 3.548-.021.341.064.842-.374.874-.598.043-.459-.522-.47-.884v-2.248c.022.011.022.011.032.011zm22.06-4.689c-.844-.053-1.667 0-1.923 1.002-.235.938.513 1.321 1.153 1.726.599.373 1.261.661 1.816 1.097 1.144.906 1.272 2.248.406 3.271-.876 1.034-3.172 1.417-4.038.693-.224-.192-.331-.416-.192-.693.128-.245.353-.234.577-.192.481.096.951.245 1.431.288.844.064 1.475-.309 1.763-1.119.299-.842-.182-1.343-.822-1.758l-1.817-1.108c-.811-.543-1.431-1.225-1.196-2.312.267-1.172 1.239-1.566 2.243-1.769.385-.075.876-.085 1.304-.021.288.043.779.117.715.597-.053.405-.416.373-.737.341l-.683-.043zm20.403-12.094c-.182 0-.363-.043-.534.011-.481.149-1.335-.437-1.41.448-.075.842.47 1.513 1.356 1.726.567.139 1.143.011 1.71-.128.245-.064.566-.139.662.202.085.309-.139.469-.385.607-1.196.682-3.301.085-3.952-1.193-.695-1.364-.63-2.749.128-4.06.62-1.065 1.891-1.502 2.98-1.108 1.037.384 1.891 1.801 1.752 2.877-.053.447-.309.607-.715.607h-1.592zm-.278-.703c.513-.309 1.528.448 1.56-.639.032-.831-.513-1.524-1.506-1.47-.962.053-1.71.671-1.667 1.545.064 1.002 1.079.245 1.613.565zm-63.09 1.065l-.011 1.46c-.032.565.192 1.481-.94.735-.278-.181-.545.203-.822.32-1.165.522-2.671 0-3.045-1.055-.385-1.076.342-2.195 1.656-2.557l1.164-.266c.353-.096.962.266.972-.512 0-.65-.213-1.097-.897-1.279a2.41 2.41 0 0 0-1.549.085c-.224.085-.534.298-.662-.096-.096-.298.16-.458.406-.597 1.687-.97 3.6.064 3.706 2.025.033.575 0 1.151 0 1.726l.022.011zm-2.575 1.811c1.058-.053 1.528-.703 1.613-1.705.043-.501-.074-.842-.726-.799-1.431.096-2.339.682-2.243 1.545.074.799.651.959 1.356.959zM83.312 60.62c-.128 0-.288-.043-.395.011-.502.224-1.474-.575-1.517.607-.043.906.929 1.524 1.869 1.513.598-.011 1.677-.49 1.741.171.085.927-1.079.682-1.688.746-1.731.17-2.916-1.151-2.959-3.122-.043-2.11 1.143-3.623 2.841-3.634 1.41-.011 2.778 1.854 2.393 3.229-.107.384-.352.48-.684.49l-1.602-.011zm-.395-.725c.577-.309 1.613.479 1.709-.618.064-.714-.427-1.438-1.367-1.492-.823-.043-1.955.863-1.837 1.566.16.98 1.026.202 1.496.543z"/><path d="M98.343 43.517c-.128 0-.278-.032-.395.011-.513.16-1.453-.448-1.485.49-.021.916.566 1.684 1.645 1.726.481.021.961-.085 1.442-.16.256-.043.555-.181.673.171.128.394-.193.533-.47.671-1.218.565-3.087.043-3.803-1.055-.791-1.225-.758-3.229.139-4.379.748-.959 1.72-1.364 2.927-.938.993.352 1.763 1.684 1.677 2.77-.043.522-.31.693-.769.693h-1.592zm-.267-.682c.523-.384 1.613.544 1.624-.714.011-.778-.491-1.417-1.421-1.407-.993.011-1.709.618-1.72 1.481-.032 1.119 1.036.245 1.517.639zM52.451 12.413c-.182 0-.374.043-.534-.011-.534-.192-1.538.032-1.378-.842.15-.863.876-.096 1.314-.075 1.036.064 2.008.085 2.414-1.098.385-1.108-.395-1.598-1.207-2.046l-1.474-.906c-.716-.501-1.314-1.098-1.154-2.078.171-.98.833-1.534 1.741-1.822.374-.117.791-.192 1.175-.16.534.043 1.442-.075 1.367.65-.086.778-.865.181-1.325.17-.908-.021-1.731.075-2.019 1.087-.267.927.427 1.353 1.09 1.737l1.389.778c1.047.682 1.741 1.588 1.303 2.898-.417 1.236-1.421 1.737-2.703 1.716zm15.35 30.785v-1.854c.021-.607-.459-1.812.972-.842.288.192.438-.213.652-.33 1.474-.799 3.151-.075 3.344 1.566.16 1.353.075 2.739.075 4.113 0 .256-.064.586-.406.575-.385 0-.513-.32-.523-.65V42.59c.011-.98-.192-1.822-1.389-1.854-1.132-.021-1.699.693-1.795 1.737-.085.927 0 1.854-.043 2.781-.021.437.246 1.172-.481 1.14-.662-.032-.406-.757-.427-1.204l-.011-1.993h.032zm65.762 17.059l.01-2.12c.022-.543-.213-1.513.833-.522.278.256.513-.181.759-.32 1.592-.927 3.215-.171 3.386 1.673.118 1.225.054 2.472.064 3.708 0 .352.011.799-.47.799-.502.011-.459-.447-.459-.788v-3.175c-.011-.852-.171-1.641-1.229-1.705-1.025-.064-1.773.437-1.912 1.438-.16 1.087-.096 2.195-.139 3.293-.01.384.107.948-.438.938-.555-.011-.395-.586-.395-.959l-.01-2.259zm-20.895-16.388v1.321c-.032.618.309 1.662-1.004.863-.139-.085-.513.245-.791.373-1.068.48-2.564-.032-2.959-1.012-.417-1.012.192-2.174 1.421-2.589.459-.16.951-.192 1.431-.277.395-.075 1.004.139.994-.554 0-.607-.267-1.13-.951-1.257-.534-.107-1.058-.011-1.57.16-.246.075-.556.213-.673-.139-.107-.309.149-.469.384-.607 1.688-.98 3.654.064 3.739 1.993l-.021 1.726zm-2.628 1.886c1.015-.011 1.709-.778 1.677-1.779-.021-.501-.214-.682-.726-.661-1.432.053-2.329.597-2.254 1.481.064.788.619.97 1.303.959zM67.802 26.116v-1.865c.011-.639-.427-1.801.983-.842.224.16.363-.16.545-.256 1.731-.948 3.408-.075 3.504 1.875.064 1.193.011 2.387.011 3.591 0 .33-.064.671-.47.661-.395-.011-.47-.341-.47-.671v-3.186c0-.927-.214-1.726-1.325-1.779-1.143-.053-1.741.629-1.837 1.673-.096 1.055-.032 2.121-.043 3.186 0 .352.043.789-.459.789s-.47-.448-.47-.799v-2.387c.021.011.032.011.032.011zm62.887 34.237c0 .618.075 1.247-.032 1.854-.075.416.705 1.993-.919.852-.278-.192-.502.266-.769.405-1.463.778-2.98.117-3.205-1.513-.181-1.343-.106-2.728-.117-4.092 0-.309.043-.693.448-.682.513.011.449.458.449.788l.011 3.175c.011.938.32 1.684 1.399 1.716 1.058.032 1.677-.586 1.774-1.588.096-1.055.042-2.12.053-3.175 0-.405-.043-.927.481-.927.576 0 .416.565.416.938l.011 2.248zm69.521-16.441V45.5c-.01.618.043 1.311-.897.597-.321-.245-.545.16-.801.277-1.154.554-2.671.085-3.055-.948-.417-1.119.213-2.227 1.516-2.632.417-.128.866-.16 1.304-.245.395-.075 1.004.139 1.015-.522.01-.618-.278-1.119-.951-1.257-.534-.107-1.058-.053-1.56.149-.235.096-.534.266-.673-.085s.096-.544.406-.703c1.752-.916 3.621.117 3.707 2.078l-.011 1.705zm-2.638 1.843c1.004-.011 1.709-.735 1.72-1.748.01-.49-.161-.703-.695-.703-1.324 0-2.393.565-2.382 1.375.021.874.62 1.076 1.357 1.076zm-42.217-19.479l-.011 2.376c-.021.522-.224.97-.769.405-.427-.458-.577-.032-.844.117-1.624.916-3.322.021-3.418-1.854l-.022-3.57c0-.309-.032-.693.374-.725.502-.043.524.373.524.735l.01 3.175c.011.863.225 1.609 1.261 1.694 1.143.096 1.784-.554 1.912-1.588.128-1.044.053-2.11.064-3.175 0-.352-.075-.82.385-.852.587-.032.502.49.502.874v2.387h.032zm-82.49 34.685v1.854c-.011.309-.021.682-.449.671-.395 0-.481-.341-.491-.661V59.65c0-.884-.075-1.737-1.218-1.854-1.025-.107-1.869.607-1.955 1.737-.086 1.055-.021 2.121-.043 3.175 0 .341.053.788-.459.799-.502 0-.47-.437-.47-.788l-.021-4.902c0-.362.256-.938.534-.586.62.778.919.149 1.357-.075 1.442-.725 2.938.064 3.151 1.694.085.693.011 1.407.011 2.121.021-.011.032-.011.053-.011zm56.916-34.813c.011 1.961-1.25 3.378-2.991 3.367-1.699-.011-2.991-1.449-3.013-3.389-.032-1.929 1.25-3.357 3.002-3.357 1.72.011 2.991 1.439 3.002 3.378zm-.929-.011c-.011-1.577-.823-2.536-2.105-2.515-1.271.021-2.04 1.012-2.019 2.6.022 1.502.791 2.419 2.041 2.44 1.281.011 2.093-.959 2.083-2.525zm53.177-17.304V6.584c.011-.543.192-.98.748-.405.427.437.577.053.854-.107 1.549-.916 3.28-.117 3.44 1.662.107 1.279.053 2.557.053 3.847 0 .298 0 .682-.448.65-.428-.032-.417-.415-.417-.703l-.021-3.314c-.032-.852-.299-1.598-1.346-1.662-1.068-.053-1.72.511-1.816 1.524-.118 1.098-.054 2.206-.086 3.314-.01.341.086.81-.406.842-.598.043-.512-.479-.512-.863V8.843c-.022-.011-.032-.011-.043-.011zm-38.19 34.684c-.128 0-.278-.032-.395.011-.502.192-1.432-.49-1.474.49-.032.874.534 1.609 1.527 1.705.47.053.962-.064 1.442-.117.3-.043.673-.213.77.213.064.341-.246.565-.556.639-.651.16-1.303.213-1.976.064-1.442-.32-2.275-1.534-2.265-3.303.011-1.726.908-3.005 2.308-3.293 1.645-.341 3.258 1.321 2.959 3.016-.086.48-.385.543-.748.554l-1.592.021zm-.331-.703c.556-.362 1.624.522 1.709-.618.054-.767-.459-1.534-1.495-1.492-.994.043-1.688.682-1.677 1.545-.011.991.993.224 1.463.565zm-63.154.458c-.032-1.066.256-2.025 1.09-2.738.855-.746 1.848-.884 2.841-.33 1.036.586 1.325 1.609 1.303 2.728-.011.575-.459.575-.865.575h-2.532c-.919-.053-.961.384-.694 1.055.481 1.183 1.421 1.311 2.532 1.14.363-.053.951-.565 1.047.192.075.543-.545.586-.983.661-2.275.394-3.739-.895-3.739-3.282zm2.542-.458c.577-.341 1.634.49 1.731-.607.075-.767-.438-1.545-1.485-1.502-.983.043-1.688.671-1.698 1.534-.011 1.023.993.224 1.453.575zm49.288-16.772c0-.575-.096-1.172.032-1.716.086-.384-.747-2.014.919-.884.096.064.427-.234.652-.352 1.538-.842 3.151-.064 3.322 1.684.118 1.268.053 2.557.064 3.836 0 .32-.032.682-.449.671-.427-.011-.405-.405-.405-.703l-.011-3.186c-.011-.916-.278-1.705-1.378-1.758-1.133-.053-1.731.607-1.838 1.673-.085.916-.021 1.854-.064 2.781-.021.437.246 1.162-.47 1.151-.619 0-.363-.682-.384-1.087l.01-2.11zm50.774 17.187c.011-1.843.716-2.898 2.19-3.261 1.603-.405 3.44 1.364 3.13 3.005-.107.554-.513.533-.908.543h-2.66c-.865-.043-.865.447-.641 1.002.492 1.215 1.464 1.396 2.628 1.172.342-.064.876-.458.994.139.106.554-.481.629-.919.714-2.286.448-3.824-.884-3.814-3.314zm2.639-.362c.47-.48 1.56.48 1.645-.682.053-.725-.438-1.428-1.389-1.471-.844-.032-1.965.842-1.837 1.545.181.97 1.047.224 1.581.607zm-7.638 18.051v1.46c0 1.087-.011 1.108-.962.671-.416-.192-.544.202-.79.309-1.335.575-2.617.224-3.066-.874-.438-1.087.288-2.291 1.656-2.696.416-.128.876-.149 1.303-.224.353-.064.897.213.919-.426.021-.565-.193-1.087-.834-1.172-.566-.075-1.153.011-1.73-.011-.235-.011-.588.16-.652-.234-.064-.416.299-.309.534-.362 2.81-.661 3.568-.085 3.6 2.76.022.266.022.533.022.799zm-2.746 1.929c1.058 0 1.848-.799 1.816-1.822-.01-.512-.224-.735-.737-.618-.94.213-2.19-.021-2.318 1.417-.053.767.524 1.044 1.239 1.023zm73.976-53.3v1.726c-.01.671.064 1.513-.929.554-.363-.352-.534.043-.748.203-.694.522-1.399.65-2.179.139-.694-.448-1.132-1.012-1.004-1.865.128-.863.619-1.46 1.474-1.716.47-.139.951-.213 1.421-.33.395-.107 1.111.309 1.089-.533-.021-.757-.438-1.279-1.228-1.311-.47-.021-.951.16-1.431.245-.171.032-.364.053-.471-.128-.128-.256.022-.448.225-.533.833-.33 1.656-.629 2.564-.224.844.373 1.164 1.044 1.175 1.907v1.854c.021.011.032.011.042.011zm-.886.128c0-.522-.278-.661-.759-.65-1.356.032-2.328.629-2.296 1.502.021.661.373 1.183 1.068 1.204.94.021 2.019-1.151 1.987-2.057zm-182.884 50.7c0 1.971-1.335 3.42-3.119 3.389-1.602-.032-2.82-1.471-2.842-3.367-.021-2.046 1.218-3.463 3.023-3.442 1.688.011 2.938 1.471 2.938 3.421zm-.919-.085c-.011-1.566-.823-2.515-2.126-2.483-1.218.032-2.008 1.002-2.019 2.483s.887 2.579 2.094 2.568c1.282-.011 2.062-.991 2.051-2.568zm60.688-17.06c-.022-2.003 1.153-3.335 2.948-3.357 1.741-.021 3.002 1.385 3.012 3.335.022 1.993-1.26 3.431-3.055 3.463-1.624.032-2.884-1.471-2.905-3.442zm.929-.021c0 1.62.758 2.557 2.062 2.547 1.26-.011 2.115-1.055 2.093-2.568-.021-1.534-.886-2.515-2.179-2.472-1.239.032-1.976.959-1.976 2.494z"/><path d="M59.469 26.191c-.021-1.993 1.154-3.378 2.906-3.431 1.688-.053 3.023 1.407 3.044 3.325.021 1.95-1.218 3.41-2.916 3.431-1.731.032-3.013-1.375-3.034-3.325zm5.031-.053c0-1.598-.769-2.525-2.083-2.515-1.228.011-2.03.97-2.051 2.44-.021 1.534.801 2.568 2.062 2.589 1.293.021 2.072-.916 2.072-2.515zm-5.031 17.038c.032-2.014 1.25-3.346 3.034-3.293 1.731.043 2.948 1.492 2.916 3.463-.032 1.907-1.357 3.335-3.077 3.335-1.666-.011-2.906-1.513-2.874-3.506zm5.031.128c.021-1.598-.737-2.568-2.019-2.589s-2.136.991-2.126 2.515c.011 1.46.822 2.483 1.998 2.536 1.303.053 2.126-.895 2.147-2.462zM189.496 8.961c.032-1.907 1.25-3.261 2.948-3.271 1.763-.011 3.098 1.513 3.055 3.484-.042 1.875-1.388 3.282-3.097 3.239-1.699-.032-2.938-1.513-2.906-3.452zm5.063.032c-.021-1.534-.886-2.515-2.179-2.461-1.196.053-2.029 1.098-1.997 2.515.032 1.385 1.111 2.824 2.093 2.76 1.122-.053 2.105-1.396 2.083-2.813zm-81.891 51.776c0 .352.064.725-.011 1.055-.128.586.609 1.971-1.1 1.236-.246-.107-.695.32-1.068.448-1.058.373-2.19-.064-2.575-.991-.395-.927.064-2.088 1.09-2.525.555-.234 1.121-.511 1.762-.533.321-.011.887.288.898-.405 0-.618-.235-1.14-.919-1.257-.534-.096-1.058.021-1.57.202-.246.085-.524.245-.631-.149-.074-.245.129-.384.321-.522 1.581-1.076 3.653-.096 3.803 1.833.043.522.01 1.055.01 1.588-.021.021-.01.021-.01.021zm-2.949 2.078c1.282-.021 1.923-.586 1.977-1.662.021-.522-.086-.82-.716-.799-1.431.053-2.329.597-2.233 1.492.054.565.193 1.172.972.97zm62.386-16.389c-.641-.192-1.773.49-2.158-.373-.342-.746.716-1.3 1.143-1.939.609-.916 1.335-1.758 2.03-2.611.47-.575.277-.746-.385-.735l-1.859.011c-.309 0-.705.032-.737-.373-.032-.437.385-.405.684-.405h3.055c1.026 0 1.015.48.513 1.151l-2.767 3.548c-.149.192-.427.373-.331.671.139.426.523.224.801.234h1.987c.267 0 .577.032.577.384 0 .33-.288.416-.566.426l-1.987.011zm6.57.011c-.652-.181-1.731.448-2.126-.33-.427-.852.651-1.417 1.111-2.067l1.944-2.515c.449-.565.267-.767-.385-.757l-1.858.011c-.299 0-.727.064-.748-.341-.021-.522.449-.437.79-.437h2.789c.341 0 .747-.107.918.32.171.405-.16.671-.363.938l-2.51 3.25c-.203.266-.62.522-.47.874.203.469.705.17 1.068.202.481.053.972 0 1.463.011.342.011.812-.085.791.437-.011.394-.417.384-.737.394l-1.677.011zM85.396 9.27c-.128 0-.288-.043-.395.011-.513.234-1.592-.597-1.538.703.043.959 1.079 1.705 1.976 1.588.523-.075 1.421-.586 1.496 0 .075.607-.919.831-1.592.906a2.16 2.16 0 0 1-1.987-.767c-1.122-1.268-1.325-3.57-.331-4.923.716-.98 1.677-1.439 2.895-1.023 1.047.352 1.859 1.78 1.741 2.877-.043.448-.246.629-.673.629h-1.592zm-.353-.618c.523-.352 1.613.522 1.602-.725 0-.789-.534-1.439-1.431-1.449-.983-.011-1.688.618-1.709 1.513-.021 1.119 1.036.32 1.538.661zm31.193 36.996h2.692c.267 0 .598 0 .63.341.043.426-.31.479-.63.479h-3.333c-.919-.032-.93-.533-.47-1.14l2.756-3.57c.171-.224.534-.426.352-.767-.181-.352-.555-.149-.844-.17-.619-.021-1.239.011-1.858-.011-.225-.011-.46-.096-.449-.373 0-.266.224-.384.459-.384l3.59.032c.854.075.512.671.224 1.055l-2.831 3.687c-.171.192-.427.352-.288.821zm62.802-34.077c-1.453 1.311-2.885 1.236-3.953-.128-1.004-1.279-.983-3.58.043-4.827.769-.938 1.763-1.044 2.809-.65s1.667 1.662 1.581 2.717c-.053.629-.416.575-.811.586h-2.522c-.897-.053-.961.352-.683 1.044.363.895.886 1.502 1.976 1.364.502-.075.994-.075 1.56-.107zm-1.987-2.93c.512-.341 1.549.469 1.581-.629.032-.799-.556-1.534-1.496-1.545-.983 0-1.677.714-1.656 1.577.022 1.076 1.079.213 1.571.597zm36.747 2.717c-1.484 1.63-3.397 1.46-4.347-.266-.769-1.407-.759-2.909.128-4.273.652-1.012 1.645-1.47 2.874-1.066 1.068.341 1.858 1.716 1.773 2.834-.054.629-.417.693-.898.693-.801 0-1.591.043-2.392-.011-1.197-.075-1.143.49-.716 1.279.609 1.098 1.73 1.396 3.578.81zm-2.061-2.621c.342-.65 1.506.575 1.495-.81-.01-.842-.534-1.385-1.41-1.47-.758-.075-1.901.916-1.773 1.641.171 1.066 1.111.149 1.688.639zm-62.845 85.757l.011-2.387c.042-.874.769-1.279 1.281-.65.524.65.716.277 1.09-.011.363-.277.791-.501 1.229-.234.395.245.235.725.245 1.108.011.586-.406.554-.822.575-.994.075-1.175.842-1.239 1.598-.065.789-.043 1.588-.032 2.387.01.565-.129.927-.802.938-.683.011-.972-.266-.94-.948l-.021-2.376zm-33.639 17.156v-2.504c.01-.938.737-1.13 1.218-.65.566.575.801.341 1.239-.011.31-.245.726-.394 1.111-.128.384.277.277.714.245 1.098-.032.447-.331.543-.737.554-.918.011-1.185.671-1.25 1.417a22.04 22.04 0 0 0-.064 2.504c.022.661-.192.97-.897.981-.726 0-.897-.352-.865-1.002v-2.259zm48.317-48.121c-.62-.16-1.71.437-2.084-.298s.641-1.332 1.069-1.961c.619-.916 1.314-1.779 2.008-2.643.459-.575.299-.757-.374-.735l-2.126.011c-.267 0-.555-.075-.512-.437.032-.266.267-.352.491-.352l3.461.021c1.036.085.673.714.299 1.204l-2.767 3.57c-.149.192-.438.373-.288.671s.47.171.716.171l2.126.011c.235 0 .491.085.512.33.043.341-.235.437-.523.447-.62 0-1.25-.011-2.008-.011zm-22.572-52.075c-2.233 1.747-4.402.991-4.85-1.481-.203-1.161-.139-2.312.63-3.293.759-.959 1.731-1.364 2.938-.895.961.384 1.752 1.79 1.656 2.813-.065.639-.492.661-.94.661h-2.66c-.716-.011-.823.309-.588.927.459 1.289 1.57 1.716 3.814 1.268zm-2.169-2.771c.417-.469 1.464.458 1.538-.65.054-.831-.491-1.502-1.442-1.588-.78-.064-1.933.927-1.794 1.63.192 1.002 1.1.245 1.698.607zm-36.032.587c-.128 0-.288-.043-.395.011-.513.224-1.56-.543-1.538.565.021.927.673 1.673 1.73 1.812.299.043.652.074.919-.043.31-.128.652-.533.833-.021.096.288-.363.511-.683.671-1.037.511-1.998.213-2.821-.405-1.645-1.236-1.324-4.912.47-5.925.887-.501 1.784-.49 2.618.139.897.671 1.121 1.662 1.121 2.707 0 .394-.363.458-.683.469h-1.592c.021.011.021.021.021.021zm-.31-.618c.524-.352 1.635.522 1.624-.703-.011-.799-.609-1.524-1.559-1.492-.962.032-1.667.725-1.646 1.577.022 1.066 1.069.266 1.581.618zm16.099 49.261h-2.724c-.331-.011-.812.106-.791-.426.011-.405.406-.384.727-.384h2.927c.95-.011 1.132.416.598 1.14l-2.831 3.687c-.15.192-.459.362-.288.661.16.288.47.149.726.16l1.998-.011c.277 0 .587.021.619.352s-.256.437-.545.437c-1.196 0-2.403.075-3.6-.021-.972-.085-.544-.682-.235-1.108l3.419-4.486zM95.533 12.275c-.63-.149-1.72.426-2.115-.277-.47-.852.652-1.396 1.09-2.067.502-.778 1.111-1.492 1.677-2.216.214-.277.63-.543.491-.874-.192-.448-.705-.181-1.079-.213-.534-.032-1.058 0-1.592-.011-.278-.011-.566-.064-.555-.416.011-.33.288-.426.566-.426l3.055.011c.342 0 .737-.107.94.298.192.394-.075.682-.278.959l-2.745 3.57c-.15.192-.459.352-.331.661.139.33.459.171.705.171l1.859.011c.331.011.801-.096.78.447-.021.416-.417.373-.716.384l-1.752-.011zm156.979-2.92l.01-1.726c.022-.575.022-1.087-.79-1.023-.235.021-.459-.096-.492-.352-.021-.245.161-.458.396-.448 1.015.043.822-.682.865-1.279.075-1.044.566-1.748 1.656-1.95.342-.064.651.021.758.373.139.437-.192.511-.523.543-.833.075-.908.671-.972 1.332-.086.789.277 1.023 1.004.97.246-.021.395.213.384.448-.01.256-.213.405-.448.373-.994-.149-.93.49-.919 1.151l.011 3.719c0 .309.021.682-.396.725-.534.053-.512-.384-.523-.725l-.011-2.121c-.021-.011-.01-.011-.01-.011zm-82.629 14.279c-.727.021-1.474-.128-1.688.65-.235.82.566.98 1.058 1.3.074.053.16.075.245.107 1.475.725 2.019 1.63 1.571 2.621-.502 1.076-2.073 1.545-3.376 1.012-.299-.128-.63-.234-.47-.639.128-.341.427-.203.684-.149.213.043.438.107.651.117.631.021 1.304.032 1.581-.682.299-.789-.342-1.098-.865-1.417l-1.154-.661c-.972-.65-1.164-1.556-.512-2.355.64-.789 2.424-1.044 3.055-.437.139.128.235.298.107.458-.3.33-.673.043-.887.075zm-93.642 2.845v-1.716c.011-.543.075-1.108-.758-1.055-.235.021-.438-.075-.481-.341-.043-.256.128-.48.342-.469 1.058.043.887-.714.94-1.353.085-.938.523-1.577 1.528-1.716.353-.043.78-.107.865.362.075.458-.342.405-.641.447-.865.117-.801.789-.855 1.407-.064.671.182 1.012.897.927.235-.032.459.085.481.341.032.352-.256.458-.534.416-.897-.117-.876.437-.865 1.066l.011 3.836c0 .352 0 .799-.481.789-.459-.011-.47-.448-.47-.81v-2.12c.011-.011.021-.011.021-.011zm70.493-2.845c-.801-.021-1.527-.117-1.762.618-.246.799.523.991 1.036 1.311l.235.128c1.485.746 2.029 1.652 1.581 2.632-.46 1.002-2.019 1.492-3.269 1.044-.31-.107-.662-.224-.566-.597.107-.426.47-.234.769-.192.395.053.79.085 1.186.064.48-.032.844-.288.95-.778.097-.437-.085-.789-.448-1.023l-1.485-.874c-1.004-.639-1.261-1.545-.673-2.334.641-.874 2.446-1.162 3.141-.512.128.128.267.277.117.448-.278.32-.652.053-.812.064zM76.241 60.652v-1.716c.011-.533.107-1.119-.748-1.034-.246.021-.459-.096-.481-.352-.021-.245.15-.448.406-.426.897.053.833-.533.844-1.13.021-.938.288-1.769 1.346-2.014.385-.096.876-.171 1.025.32.16.565-.352.448-.673.522-.833.181-.737.863-.791 1.471-.064.65.235.884.855.82.31-.032.534.117.523.437 0 .245-.224.405-.459.373-1.122-.149-.929.629-.929 1.268v3.57c0 .373-.043.767-.534.735-.406-.032-.395-.405-.406-.714l.021-2.131zM216.683 9.003v-.661c.021-2.163.074-2.27.491-2.078.961.458 1.367-.757 2.275-.618 1.229.192 2.126.81 2.212 2.057.085 1.279.042 2.557.042 3.847 0 .309-.01.682-.448.661-.428-.011-.428-.384-.428-.693l-.01-3.314c-.011-.959-.374-1.684-1.442-1.662-.941.021-1.624.394-1.763 1.481-.139 1.108-.043 2.206-.096 3.303-.011.341.075.821-.395.853-.524.032-.417-.48-.428-.799l-.01-2.376zm-16.654-2.472c-.716.021-1.464-.139-1.677.65-.214.799.544.991 1.057 1.3a2.41 2.41 0 0 0 .235.117c1.496.757 2.009 1.63 1.538 2.632-.491 1.055-1.901 1.502-3.247 1.055-.31-.107-.641-.213-.587-.586.064-.469.437-.298.737-.245.256.053.523.107.779.117.609.021 1.197-.075 1.421-.725.246-.703-.256-1.044-.78-1.343l-1.378-.799c-.555-.373-.865-.895-.726-1.588.16-.789.758-1.172 1.474-1.364.705-.192 1.41-.117 2.03.309.075.053.139.266.096.341-.289.479-.716.075-.972.128zm-51.682 51.34c-.267-.021-.523-.075-.79-.064-.492.021-1.026.043-1.197.618-.203.671.278.948.769 1.204l.951.469c1.207.671 1.592 1.684 1.015 2.6-.63 1.002-2.596 1.46-3.461.81-.192-.149-.31-.33-.246-.565.075-.256.289-.309.524-.245.213.053.427.139.641.16.737.075 1.506.032 1.773-.778.256-.767-.46-1.044-.972-1.375-.299-.192-.631-.33-.93-.511-1.079-.65-1.356-1.588-.737-2.408.63-.831 2.457-1.14 3.141-.511.107.096.214.32.181.447-.096.352-.405.181-.662.149z"/><path d="M162.181 44.977l1.346-3.964c.139-.394.235-1.055.78-.884.641.202.16.746.032 1.119l-1.592 4.507c-.117.33-.235.703-.684.714-.502.011-.673-.373-.811-.757l-1.624-4.774c-.096-.288-.299-.639.085-.81.428-.181.641.139.759.511l1.378 4.294.331.043zm-85.94-1.417l.011-1.726c.021-.565.053-1.098-.769-1.023-.235.021-.459-.096-.449-.362.011-.139.192-.384.278-.373 1.196.085.897-.81.983-1.449.15-1.236.908-1.95 1.869-1.769.288.053.534.17.545.48.011.256-.214.362-.459.362-1.058 0-.993.778-1.068 1.481-.075.757.353.895.972.863.246-.011.427.16.406.416s-.246.373-.481.352c-.994-.128-.908.522-.897 1.161l.011 3.708c0 .32-.021.693-.406.725-.502.043-.523-.373-.534-.735l-.011-2.11zm87.777-19.958c-.747.053-1.485-.075-1.655.746-.161.746.544.916 1.014 1.204.15.096.321.16.481.235 1.378.714 1.87 1.641 1.357 2.589-.566 1.055-2.318 1.524-3.419.906-.203-.117-.406-.245-.373-.49.064-.362.352-.309.619-.266.256.043.524.107.791.117.641.021 1.292-.043 1.527-.778.225-.725-.395-1.002-.865-1.311-.331-.224-.705-.384-1.036-.597-1.09-.682-1.336-1.566-.695-2.43.599-.799 2.35-1.076 3.045-.48.149.128.278.266.171.448-.31.501-.737.011-.962.107zm41.833-17.071c-.737.011-1.474-.128-1.688.65-.224.799.513 1.002 1.047 1.3l.235.128c1.474.746 1.987 1.524 1.624 2.472-.438 1.14-1.913 1.673-3.28 1.215-.31-.106-.641-.213-.587-.586.064-.48.437-.341.726-.245.438.139.865.149 1.314.085.481-.075.822-.352.919-.831.085-.426-.129-.767-.503-.991l-1.709-1.012a1.46 1.46 0 0 1-.715-1.588c.149-.81.758-1.161 1.463-1.353s1.399-.096 2.03.298c.074.043.128.266.085.341-.299.49-.726-.011-.961.117zm-71.744 105.087v2.387c.022.618-.245.874-.865.884-.673.011-.951-.234-.94-.937v-4.774c-.011-.629.224-.874.855-.874.673-.011.982.234.95.938v2.376zm-18.32-99.993c.833-.192 1.496.181 2.126-.096.395-.171.855-.309.929-.842.075-.511-.224-.831-.63-1.066l-1.378-.789c-.609-.373-1.015-.863-.919-1.63.107-.831.684-1.193 1.389-1.428.716-.234 1.399-.107 2.051.245.086.043.16.224.139.33-.043.309-.299.266-.513.256-.801-.043-1.901-.48-2.126.661-.192.991.962 1.076 1.624 1.46.759.437 1.464.959 1.378 1.939-.075.874-.694 1.385-1.527 1.652-.941.288-1.795.373-2.543-.693zm-46.853 82.88v-2.376c-.021-.586.15-.906.812-.916.684-.011.951.245.94.927v4.752c.011.576-.16.906-.822.927-.684.011-.962-.266-.94-.948l.011-2.365zm87.008-37.21c-.341 1.087-.534 2.248-1.057 3.239-.406.767-.363 1.598-.727 2.344-.16.33-.288.682-.726.65-.363-.021-.545-.298-.652-.597l-1.784-5.136c-.085-.256-.128-.565.203-.661.481-.139.609.256.716.597l1.464 4.582c.918-1.769 1.025-3.73 2.125-5.232l.438.213zm-30.861-44.999c-1.549.16-2.457-.554-2.981-1.63-.608-1.247-.576-2.579.267-3.772.77-1.076 1.881-1.417 3.152-1.268.406.043 1.036.117.886.725-.138.575-.673.202-1.014.149-.972-.149-1.774.107-2.297.948-.62.991-.598 2.035 0 3.005.406.661.919 1.236 1.891 1.13.448-.053 1.314-.522 1.356.138.064.895-.982.341-1.26.575zm132.505-3.325l-.011-1.598c-.011-.213-.053-.565-.149-.597-1.186-.341-1.795-.65-.043-1.119.117-.032.181-.384.192-.597.032-.416.054-.906.588-.842.491.053.309.554.299.874-.022.554.16.842.769.767.278-.032.587.064.598.373.011.32-.31.416-.587.384-.716-.096-.791.309-.77.874l.011 2.653c0 .746 0 1.47 1.079 1.406.224-.011.449.085.438.373-.011.33-.267.469-.534.479-.887.053-1.624-.224-1.773-1.204-.118-.735-.107-1.492-.15-2.248.011.021.021.021.043.021zm-30.798-2.45c-.769.043-1.506-.139-1.741.639-.246.81.491 1.012 1.026 1.3.192.107.405.181.598.288 1.239.682 1.677 1.641 1.175 2.557-.566 1.012-2.318 1.524-3.344.97-.267-.149-.619-.32-.491-.671.192-.543.47.011.705 0 .481-.011.961-.085 1.431-.16s.855-.309.908-.81c.043-.437-.224-.746-.587-.959l-1.699-1.023c-.886-.671-.961-1.534-.277-2.27.705-.767 2.51-.97 3.055-.341.128.139.192.32.053.48-.288.33-.641-.053-.812 0zM60.997 6.478c-1.474-.139-2.51.767-2.606 2.227-.107 1.609.812 2.781 2.265 2.845.214.011.438-.043.652-.075.299-.043.694-.16.726.288.032.373-.352.458-.662.511-1.047.171-2.03.021-2.863-.693-1.026-.884-1.389-2.504-.855-3.879.513-1.353 1.763-2.184 3.194-2.099.502.032 1.261.011 1.175.725-.085.65-.705.128-1.026.149zm172.489 0c-1.485-.149-2.489.735-2.585 2.216-.107 1.694.844 2.802 2.393 2.856.416.011 1.164-.511 1.207.213.032.671-.812.522-1.293.543-1.922.085-3.29-1.343-3.29-3.346.011-2.003 1.517-3.495 3.451-3.378.502.032 1.271-.021 1.175.714-.096.703-.716.139-1.058.181zM115.99 26.085v-1.321c.021-.554.053-1.098-.769-1.066-.246.011-.438-.107-.449-.373-.021-.266.16-.437.395-.426.759.021.866-.405.834-1.023-.022-.352.16-.629.555-.575.342.043.342.341.331.618 0 .043.011.117-.01.128-1.069.682 2.521.863.171 1.929-.673.309-.129 2.067-.193 3.165-.042.767-.074 1.588 1.101 1.502.256-.021.438.139.427.394-.011.298-.224.479-.524.49-.94.021-1.698-.266-1.816-1.321-.074-.703-.01-1.407-.01-2.12h-.043zm-12.872-.054v-1.865c0-.97 0-.959.94-.725.427.107.523-.394.844-.533.47-.202 1.004-.469 1.249.16.236.597-.373.533-.737.629-1.046.288-1.292 1.151-1.356 2.057-.064.927-.022 1.865-.032 2.792 0 .32-.022.693-.438.682-.396 0-.46-.341-.46-.682l-.01-2.515zm87.51 17.177l.011-1.982c.032-.554-.438-1.843.972-.735.406.32.588-.384.961-.48.449-.106.941-.309 1.111.266.15.511-.363.458-.705.522-1.014.202-1.314.97-1.367 1.854l-.032 3.037c0 .362-.032.778-.523.735-.374-.032-.438-.373-.449-.703v-2.515h.021zm-87.532-.096v-2.387c0-.341.31-.799.449-.618.662.82 1.079.075 1.592-.117.373-.149.854-.256 1.014.256.161.522-.299.501-.651.554-1.186.192-1.368 1.151-1.442 2.088-.086.916-.022 1.854-.032 2.781 0 .309 0 .703-.396.725-.48.021-.502-.405-.502-.767v-2.515h-.032zm.556 14.045c.598 1.247 1.004.011 1.517-.149.406-.128.833-.234.993.288.128.405-.224.501-.555.554-1.24.192-1.485 1.14-1.56 2.142-.064.884-.011 1.769-.032 2.653 0 .341.085.799-.417.842-.512.032-.48-.416-.48-.767l-.022-4.774c.011-.373 0-.725.556-.789zm64.767 3.218c0-.224-.042-.447.011-.661.182-.725-.459-2.025.256-2.067.823-.064 1.314-.522 1.977-.714.341-.096.63-.011.737.352.096.33-.128.501-.417.533-1.474.192-1.613 1.279-1.645 2.429v2.504c0 .362-.043.767-.545.714-.416-.043-.374-.426-.384-.725v-2.376zM107.476 8.961V6.585c0-.309.235-.831.288-.757.759 1.023 1.432-.16 2.137-.053.299.043.577.139.641.373.085.33-.363.373-.513.405-1.356.266-1.559 1.247-1.581 2.366l-.011 2.248c-.01.405.182 1.023-.491 1.002-.534-.021-.417-.565-.417-.948v-2.25c-.021-.011-.042-.011-.053-.011zm50.635 17.113v-2.376c0-.341.064-.65.438-.703.416-.064.523.256.523.586v5.147c0 .277-.075.554-.406.575-.395.032-.534-.256-.544-.597l-.011-2.632zm.961 34.237v2.515c-.01.298-.021.671-.459.671-.395 0-.502-.32-.502-.65v-5.029c0-.32.107-.661.491-.671.427-.021.46.352.47.661v2.504zm-3.707-51.329V6.606c0-.352-.01-.778.481-.778.385 0 .459.362.459.682v5.008c0 .33-.106.661-.502.65-.406-.011-.448-.362-.448-.682l.01-2.504zm-65.323-.117V6.499c0-.32.096-.661.481-.661.417.011.417.384.417.693v4.87c0 .309 0 .703-.395.714-.491.021-.502-.405-.502-.757V8.865zm23.459.255v2.248c0 .341.032.789-.47.778-.406-.011-.438-.384-.438-.693V6.552c0-.309.032-.693.427-.703.513-.032.492.405.492.757l-.011 2.515zm9.262 51.297l-.011 2.504c-.011.266-.096.554-.438.554-.352 0-.417-.288-.417-.554l.011-5.285c0-.234.107-.458.353-.501.331-.043.48.213.491.49l.011 2.792zm44.877-17.241v2.504c0 .32-.032.693-.406.714-.492.032-.502-.394-.502-.757v-4.88c0-.309.042-.661.47-.65.416.021.438.373.438.682v2.387zm-44.877.064v2.366c0 .352.01.788-.481.778-.395-.011-.385-.416-.385-.714V40.8c0-.298-.032-.693.396-.703.491 0 .48.416.48.778l-.01 2.366zm-2.222-17.049v-2.387c0-.352-.064-.788.459-.767.417.011.417.384.417.693l.01 4.902c0 .33-.064.671-.48.639-.428-.021-.406-.394-.417-.703l.011-2.376zm12.893 79.439c.599-.022.705.404.684.948-.032.778-.566.778-1.122.756-.737-.01-.673-.543-.673-1.033 0-.735.535-.671 1.111-.671z"/><path d="M69.863 90.221c-.566.053-.94-.075-.94-.757-.011-.639.192-.97.897-.959.62.011.855.266.865.863s-.182.927-.822.852z"/></g><path d="M10.116 14.278h1.731c2.745-.032 2.339.362 2.372-2.419l-.032-4.518c-.043-.948.321-1.225 1.239-1.183l4.658-.011c.919-.043 1.271.256 1.239 1.204l-.021 5.701c-.032.916.235 1.257 1.186 1.225l5.993-.021c.737-.011 1.047.234 1.036.98l.011 4.912c.021.82-.342 1.055-1.132 1.055-1.998-.021-3.995.064-5.993.043-.79-.011-1.111.234-1.09 1.066l.021 5.712c.043 1.066-.342 1.385-1.389 1.321a40.24 40.24 0 0 0-4.39 0c-1.09.064-1.378-.373-1.346-1.396l.032-5.306c.043-1.066-.246-1.524-1.41-1.46l-5.726.085c-.887.032-1.175-.298-1.143-1.151v-4.784c-.021-.81.288-1.108 1.09-1.076l3.066.021z" fill="#fcfcfc"/></g><defs><clipPath id="A"><path fill="#fff" transform="translate(0 .5)" d="M0 0h260v117H0z"/></clipPath></defs></svg>