<svg width="16" height="16" viewBox="0 0 16 16" fill="none" xmlns="http://www.w3.org/2000/svg">
<path d="M11.0024 1.677C12.1029 2.19488 13.0495 2.98849 13.7495 3.98013C14.4496 4.97176 14.879 6.12743 14.9959 7.334H16C15.8323 5.33542 14.917 3.47246 13.4354 2.11416C11.9537 0.755855 10.0138 0.00131104 8 0C7.84938 0 7.70579 0.013 7.55516 0.023L10.1087 2.567L11.0024 1.677ZM6.81511 1.163C6.62685 0.975834 6.3717 0.870713 6.10569 0.870713C5.83967 0.870713 5.58452 0.975834 5.39626 1.163L1.13468 5.407C0.94674 5.59449 0.841183 5.84858 0.841183 6.1135C0.841183 6.37842 0.94674 6.63251 1.13468 6.82L9.18087 14.833C9.36913 15.0202 9.62428 15.1253 9.8903 15.1253C10.1563 15.1253 10.4115 15.0202 10.5997 14.833L14.8603 10.59C15.0482 10.4025 15.1538 10.1484 15.1538 9.8835C15.1538 9.61858 15.0482 9.36449 14.8603 9.177L6.81511 1.163ZM9.89482 14.127L1.84461 6.113L6.10518 1.87L14.1514 9.883L9.89482 14.127ZM4.99762 14.327C3.8967 13.8089 2.94983 13.0148 2.24977 12.0226C1.54971 11.0304 1.12049 9.8741 1.00414 8.667H0C0.167891 10.6654 1.08331 12.5281 2.56493 13.8862C4.04655 15.2443 5.98631 15.9987 8 16C8.15062 16 8.29421 15.987 8.44483 15.977L5.8913 13.433L4.99762 14.323V14.327Z" fill="#9E9E9E"/>
</svg>
