<svg width="28" height="28" viewBox="0 0 28 28" fill="none" xmlns="http://www.w3.org/2000/svg">
<path d="M2 11.1514C2 8.30638 4.30638 6 7.15144 6V6C8.28537 6 9.38763 6.37414 10.2873 7.0644L11.3456 7.87643C12.7427 8.94838 14.4545 9.52941 16.2155 9.52941H17C21.4183 9.52941 25 13.1111 25 17.5294V18C25 22.4183 21.4183 26 17 26H10C5.58172 26 2 22.4183 2 18V11.1514Z" stroke="#3B4657" stroke-width="2"/>
<path d="M7 6H14.9259C17.3093 6 19.5687 7.06277 21.0885 8.89883L22 10" stroke="#3B4657" stroke-width="2"/>
<path d="M17.5355 17.5355V17.5355C15.5829 15.5829 12.4171 15.5829 10.4645 17.5355V17.5355" stroke="#3B4657" stroke-width="2" stroke-linecap="round"/>
<path d="M14 15V21" stroke="#3B4657" stroke-width="2" stroke-linecap="round"/>
</svg>
