<svg width="18" height="18" viewBox="0 0 18 18" fill="none" xmlns="http://www.w3.org/2000/svg">
<path d="M9.66 15.645H5.1075C2.445 15.645 1.5 13.7775 1.5 12.0375V5.96251C1.5 3.36751 2.5125 2.35501 5.1075 2.35501H9.66C12.255 2.35501 13.2675 3.36751 13.2675 5.96251V12.0375C13.2675 14.6325 12.255 15.645 9.66 15.645ZM5.1075 3.49501C3.15 3.49501 2.64 4.00501 2.64 5.96251V12.0375C2.64 12.96 2.9625 14.505 5.1075 14.505H9.66C11.6175 14.505 12.1275 13.995 12.1275 12.0375V5.96251C12.1275 4.00501 11.6175 3.49501 9.66 3.49501H5.1075Z" fill="#FF7B58"/>
<path d="M15.5849 13.5825C15.2624 13.5825 14.8499 13.4775 14.3774 13.1475L12.3749 11.745C12.2249 11.64 12.1349 11.4675 12.1349 11.28V6.72C12.1349 6.5325 12.2249 6.36 12.3749 6.255L14.3774 4.8525C15.2699 4.23 15.9224 4.41 16.2299 4.5675C16.5374 4.7325 17.0624 5.16 17.0624 6.2475V11.745C17.0624 12.8325 16.5374 13.2675 16.2299 13.425C16.0874 13.5075 15.8624 13.5825 15.5849 13.5825ZM13.2674 10.98L15.0299 12.21C15.3674 12.4425 15.6074 12.465 15.7049 12.4125C15.8099 12.36 15.9224 12.15 15.9224 11.745V6.255C15.9224 5.8425 15.8024 5.64 15.7049 5.5875C15.6074 5.535 15.3674 5.5575 15.0299 5.79L13.2674 7.02V10.98Z" fill="#FF7B58"/>
<path d="M8.625 8.8125C7.695 8.8125 6.9375 8.055 6.9375 7.125C6.9375 6.195 7.695 5.4375 8.625 5.4375C9.555 5.4375 10.3125 6.195 10.3125 7.125C10.3125 8.055 9.555 8.8125 8.625 8.8125ZM8.625 6.5625C8.3175 6.5625 8.0625 6.8175 8.0625 7.125C8.0625 7.4325 8.3175 7.6875 8.625 7.6875C8.9325 7.6875 9.1875 7.4325 9.1875 7.125C9.1875 6.8175 8.9325 6.5625 8.625 6.5625Z" fill="#FF7B58"/>
</svg>
