<svg width="186" height="181" viewBox="0 0 186 181" fill="none" xmlns="http://www.w3.org/2000/svg">
<circle cx="95.5" cy="91" r="70.5" fill="#00D2FF"/>
<circle cx="178.5" cy="28" r="7.5" fill="#00D2FF"/>
<circle cx="20" cy="10.5" r="10" fill="#00D2FF"/>
<circle cx="10" cy="133.5" r="5" fill="#00D2FF"/>
<circle cx="165.5" cy="161" r="2.5" fill="#00D2FF"/>
<path fill-rule="evenodd" clip-rule="evenodd" d="M70.917 90.9984C70.917 77.4308 81.9303 66.415 95.5003 66.415C109.095 66.415 120.084 77.4308 120.084 90.9984C120.084 104.571 109.095 115.582 95.5003 115.582C81.9303 115.582 70.917 104.571 70.917 90.9984ZM93.337 81.6813C93.337 80.5037 94.3203 79.518 95.5003 79.518C96.6803 79.518 97.6391 80.5037 97.6391 81.6813V92.5471C97.6391 93.7296 96.6803 94.6859 95.5003 94.6859C94.3203 94.6859 93.337 93.7296 93.337 92.5471V81.6813ZM95.5249 102.506C94.3203 102.506 93.3616 101.522 93.3616 100.342C93.3616 99.1625 94.3203 98.2037 95.5003 98.2037C96.7049 98.2037 97.6637 99.1625 97.6637 100.342C97.6637 101.522 96.7049 102.506 95.5249 102.506Z" fill="white"/>
<circle cx="106.5" cy="5" r="2.5" fill="#00D2FF"/>
<circle cx="62.5" cy="177" r="3.5" fill="#00D2FF"/>
<circle cx="122" cy="171.5" r="1" fill="#00D2FF"/>
<circle cx="170.5" cy="111" r="2.5" fill="#00D2FF"/>
<circle cx="1" cy="75.5" r="1" fill="#00D2FF"/>
</svg>
